/* XPM */
static char * atmos_xpm[] = {
"63 63 249 2",
"  	c None",
". 	c #000000",
"+ 	c #010101",
"@ 	c #020202",
"# 	c #060606",
"$ 	c #0A0A0A",
"% 	c #090909",
"& 	c #080808",
"* 	c #0E0E0E",
"= 	c #111111",
"- 	c #131313",
"; 	c #0B0B0B",
"> 	c #0F0F0F",
", 	c #0D0D0D",
"' 	c #030303",
") 	c #040404",
"! 	c #070707",
"~ 	c #141414",
"{ 	c #171717",
"] 	c #222222",
"^ 	c #2B2B2B",
"/ 	c #2C2C2C",
"( 	c #303030",
"_ 	c #2A2A2A",
": 	c #1C1C1C",
"< 	c #161616",
"[ 	c #151515",
"} 	c #181818",
"| 	c #262626",
"1 	c #2D2D2D",
"2 	c #343434",
"3 	c #464646",
"4 	c #515151",
"5 	c #474747",
"6 	c #3D3D3D",
"7 	c #232323",
"8 	c #272727",
"9 	c #101010",
"0 	c #2E2E2E",
"a 	c #050505",
"b 	c #0C0C0C",
"c 	c #1D1D1D",
"d 	c #3F3F3F",
"e 	c #585858",
"f 	c #626262",
"g 	c #676767",
"h 	c #767676",
"i 	c #787878",
"j 	c #5C5C5C",
"k 	c #505050",
"l 	c #4A4A4A",
"m 	c #3E3E3E",
"n 	c #484848",
"o 	c #2F2F2F",
"p 	c #1F1F1F",
"q 	c #3A3A3A",
"r 	c #454545",
"s 	c #1B1B1B",
"t 	c #292929",
"u 	c #242424",
"v 	c #282828",
"w 	c #717171",
"x 	c #868686",
"y 	c #8F8F8F",
"z 	c #959595",
"A 	c #A3A3A3",
"B 	c #9E9E9E",
"C 	c #696969",
"D 	c #6F6F6F",
"E 	c #6A6A6A",
"F 	c #6C6C6C",
"G 	c #5E5E5E",
"H 	c #3B3B3B",
"I 	c #323232",
"J 	c #404040",
"K 	c #4B4B4B",
"L 	c #444444",
"M 	c #1E1E1E",
"N 	c #353535",
"O 	c #313131",
"P 	c #636363",
"Q 	c #8D8D8D",
"R 	c #A1A1A1",
"S 	c #ACACAC",
"T 	c #BFBFBF",
"U 	c #B6B6B6",
"V 	c #575757",
"W 	c #858585",
"X 	c #9A9A9A",
"Y 	c #202020",
"Z 	c #191919",
"` 	c #252525",
" .	c #393939",
"..	c #424242",
"+.	c #434343",
"@.	c #414141",
"#.	c #646464",
"$.	c #888888",
"%.	c #939393",
"&.	c #B4B4B4",
"*.	c #AFAFAF",
"=.	c #757575",
"-.	c #989898",
";.	c #979797",
">.	c #777777",
",.	c #535353",
"'.	c #555555",
").	c #121212",
"!.	c #686868",
"~.	c #9D9D9D",
"{.	c #B1B1B1",
"].	c #C2C2C2",
"^.	c #BBBBBB",
"/.	c #808080",
"(.	c #BDBDBD",
"_.	c #C9C9C9",
":.	c #5D5D5D",
"<.	c #4E4E4E",
"[.	c #1A1A1A",
"}.	c #4D4D4D",
"|.	c #5B5B5B",
"1.	c #AAAAAA",
"2.	c #CDCDCD",
"3.	c #D5D5D5",
"4.	c #C3C3C3",
"5.	c #8A8A8A",
"6.	c #CACACA",
"7.	c #DFDFDF",
"8.	c #D7D7D7",
"9.	c #999999",
"0.	c #565656",
"a.	c #373737",
"b.	c #212121",
"c.	c #5F5F5F",
"d.	c #D2D2D2",
"e.	c #D8D8D8",
"f.	c #B3B3B3",
"g.	c #6E6E6E",
"h.	c #CBCBCB",
"i.	c #E1E1E1",
"j.	c #DDDDDD",
"k.	c #848484",
"l.	c #525252",
"m.	c #363636",
"n.	c #383838",
"o.	c #4C4C4C",
"p.	c #3C3C3C",
"q.	c #545454",
"r.	c #656565",
"s.	c #8E8E8E",
"t.	c #D3D3D3",
"u.	c #D4D4D4",
"v.	c #949494",
"w.	c #666666",
"x.	c #CCCCCC",
"y.	c #E7E7E7",
"z.	c #EFEFEF",
"A.	c #FAFAFA",
"B.	c #FCFCFC",
"C.	c #E9E9E9",
"D.	c #707070",
"E.	c #494949",
"F.	c #797979",
"G.	c #7B7B7B",
"H.	c #6D6D6D",
"I.	c #737373",
"J.	c #727272",
"K.	c #898989",
"L.	c #D6D6D6",
"M.	c #F6F6F6",
"N.	c #F5F5F5",
"O.	c #616161",
"P.	c #7E7E7E",
"Q.	c #828282",
"R.	c #7F7F7F",
"S.	c #C0C0C0",
"T.	c #BABABA",
"U.	c #909090",
"V.	c #C6C6C6",
"W.	c #EEEEEE",
"X.	c #F7F7F7",
"Y.	c #7C7C7C",
"Z.	c #A0A0A0",
"`.	c #ADADAD",
" +	c #919191",
".+	c #A7A7A7",
"++	c #C1C1C1",
"@+	c #BCBCBC",
"#+	c #929292",
"$+	c #A2A2A2",
"%+	c #B8B8B8",
"&+	c #DBDBDB",
"*+	c #595959",
"=+	c #8C8C8C",
"-+	c #ABABAB",
";+	c #C4C4C4",
">+	c #C8C8C8",
",+	c #EBEBEB",
"'+	c #8B8B8B",
")+	c #F8F8F8",
"!+	c #878787",
"~+	c #CECECE",
"{+	c #5A5A5A",
"]+	c #B0B0B0",
"^+	c #E2E2E2",
"/+	c #6B6B6B",
"(+	c #606060",
"_+	c #818181",
":+	c #B2B2B2",
"<+	c #F2F2F2",
"[+	c #969696",
"}+	c #747474",
"|+	c #9B9B9B",
"1+	c #7D7D7D",
"2+	c #DADADA",
"3+	c #F1F1F1",
"4+	c #E6E6E6",
"5+	c #A5A5A5",
"6+	c #AEAEAE",
"7+	c #D1D1D1",
"8+	c #CFCFCF",
"9+	c #E0E0E0",
"0+	c #EAEAEA",
"a+	c #D9D9D9",
"b+	c #A8A8A8",
"c+	c #B9B9B9",
"d+	c #A6A6A6",
"e+	c #333333",
"f+	c #A9A9A9",
"g+	c #4F4F4F",
"h+	c #B7B7B7",
"i+	c #838383",
"j+	c #E8E8E8",
"k+	c #E5E5E5",
"l+	c #9F9F9F",
"m+	c #B5B5B5",
"n+	c #7A7A7A",
"o+	c #ECECEC",
"p+	c #C7C7C7",
"q+	c #E3E3E3",
"r+	c #BEBEBE",
"s+	c #DCDCDC",
"t+	c #9C9C9C",
"u+	c #A4A4A4",
"v+	c #F9F9F9",
"w+	c #C5C5C5",
"x+	c #DEDEDE",
"y+	c #EDEDED",
"z+	c #F3F3F3",
". . . . . . . . . . . . . . . . . . . . . . . . . . . . . . . . . . . . . . . . . . . . . . . . . . . . . . . . . . . . . . . ",
". . . . . . . . . . . . . . . . . . . . . . . . . . . . . . . . . . . . . . . . . . . . . . . . . . . . . . . . . . . . . . . ",
". . . . . . . . . . . . . . . . . + + + + + @ # $ % & $ * = - = * ; ; > > , $ $ $ & # @ . . . . . . . . . . . . . . . . . . . ",
". . . . . . . . . . . . . . . . + ' ) ) ' ) ! > ~ { ] ^ / ( _ : < { < [ - = = } : } > # + + . . . . . . . . . . . . . . . . . ",
". . . . . . . . . . . . . . . . + ) # ! # $ } | 1 2 3 4 5 3 6 7 8 1 ^ } % 9 : _ 0 | } $ @ + + . . . . . . . . . . . . . . . . ",
". . . . . . . . . . . . . . @ a b ~ { < = c d e f g h i j k l m n k n o p ^ q r 5 6 ^ { $ & a @ + . . . . . . . . . . . . . . ",
". . . . . . . . . . . . . + & > s 8 t u v n w x y z A B C k g D E F G H / I J K l L q ^ M { 9 % a + . . . . . . . . . . . . . ",
". . . . . . . . . . . . . @ ; < | N I ] O P Q R A S T U h V W X Q h f H Y ~ Z ` 0  ...+.6 o M 9 & ' . . . . . . . . . . . . . ",
". . . . . . . . . . . + ) $ ~ M I ..N c v @.#.$.%.R &.*.=.d #.-.;.>.V 6 ] 9 $ > Z o ..,.'.+.^ Z 9 $ a ' @ . . . . . . . . . . ",
". . . . . . . . . + + @ ! 9 ~ ).` d q v 8 | ( !.~.{.].^./.+.h (._.S i :.l _ ] / o 0  .<.e +.| ~ * 9 9 , # + . . . . . . . . . ",
". . . . . . . . + @ ' & 9 [.Z ! 9 I }.3 q 0 | |.1.2.3.4.5.e y 6.7.8.1.9.5.f 4 e 0.d a.}.0. .: ; & 9 Z s , @ . . . . . . . . . ",
". . . . . . . . a % 9 c t o b.* [.2 0.c.}.d ^ ..~.d.e.f.>.|.g.;.h.i.j.7.8.&.k.!.G l.'.G e q s b $ ).^ m.` , ' . . . . . . . . ",
". . . . . . . . & 9 M n.o.l.J p.5 q.r.h F e q q s.t.u.v.|.w.g.W x.y.z.A.B.C.1.C <.:.D D.G 5 | ).).8 E.4 q } # . . . . . . . . ",
". . . . . + + @ , ~ u 5 C F.w G./.w H.I.J.f K ..J.&.U G.e K.1.&.2.t.L.C.M.N.4.H.5 e C :.5 d 2 ^ q O.P.w K Y % + . . . . . . . ",
". . . . . ) % b s u 8 ..F Q.R.%.y E :.:.F F.G.w g >.P.P F X S.T.1.U.;.V.W.X.u.>.+.k <.( s Y o 4 Y.Z.`. +G v $ ' ) ) @ . . . . ",
". . . . . ! = [ 1 +.n.m C R.R.R.:.m.I E.I..+++@+$.K J +.E #+$+5.:.d f %+W.X.&+Q.J E.d : * ~ 8 *+=+-+&.~.F 1 # ) ! & @ . . . . ",
". . . . + ; Z ] J '.5 0.W Q J.0.u ! - r Q.;+C.C.f.6 - b.4 F.>.l Z ] =.>+,+,+;+g.0 O O p Z ] o }.D.Y.K.'+H.o # a ! % @ . . . . ",
". . . + @ ).7 I <.l.H V $.W C *+m s b.0.;.t.M.)+h.k { 8 k F.D.@.- o !+].~+T.W @.[ - : | 1 I p.l.*+q.{+P |.I ).* ; $ @ . . . . ",
". . . + ' - t H o.l.o.q.g.I.f ,.q.V q.I.]+^+)+)+x.0.[.( V U.9.g | _ f Q =+/+n 0 M : / 5 0.l +.q.:.q.l +.+.@.a./ : = @ . . . . ",
". . @ @ ) { 6 (+I.F.5._+I.D.4 d D.1.&.:+6.,+)+<+@+<.M H h :+4.[+d < 7 J }.+.m. .3 K l.!.}+:.L ,.P q.H / ( e !.'.2 : ! . . . . ",
". . a & & p <.Y.9.;.|+%.1+E @.0 D.:+u.2+j.3+M.4+5+.._ :.B x.6.y N # a { @.<.6 5 O.w.:.w.D.G n 4 r.,.1 < s q.Q.}+}.t 9 . . . . ",
". . ! * > c @./.1.`.~.z s.g J ^ d !.6+7+8+9+0+a+%.d r G.b+T b+(+< @ @ > m '.p.m |.f ,.l 4 l.l.*+g e _ , ! N }+Y.:.a.M . . . . ",
". . % = ~ M ..5.&.S.c+T.d+F 4 e+b.q /.R -.]+2.V.Q.@.{+>.W  +1+3 < a @ a } ( | u p.5 @.n.d '.!.D.g.|.o ; @ * d #.j ../ + . . . ",
". . $ - s ( |.v.f+1.f+S -.!.V +.1 O 4 r.H._+-.~.H.5 l.g+3 0.g '.2 = ' @ @ * p | o m m q l r.h G.G.g.<.7 , # [.J g+E.p.a . . . ",
". . , [.7 H !.Q R.E g w =.j '.r m.H l (+}+J.D.g.G q.@.M [ 0 *+(+L Y ; # ) ,  .c./+}+}+F H.=.>.}+/.Q R.V  .u _ L {+f }.b . . . ",
". . > Y |  .:.I.l.1 v 6 <.5 }.,.c.#.w.E D =.R./+*+P K ] < v K |.3 u } = $ b.D f+V.t.8+h+#+w O.C 5.Z.;.k.i+w (+J.i+R.j } . . . ",
". . ).7 u ^ 6 k n I < < / n.r F $.Q Q.h g.w Q.i J.Q.h e I o r 0.o.v < = [ <.1.L.j+N.X.k+.+G d #.#+l+$.=+U m+K.k.v.$.(+] . . . ",
". . < 8 ` s [.( l.,.| ~ 2 E.4 C i+5.Q.n+n+g |./+K.z _+=.*++.}.k n ( ).$ v /.].2.;+d.o+W.:+q.O 0._+P.c.G.p+2+Z.i _+P.:./ . . . ",
". . } t ` : { ^ '.j 1 ).O o.l L '.j G F $.G.5 l.K.#+/.'+$.J.#.n H ( Z * 2 F.B  +R.9.3.C.h+j n...k E.n $.7+9+5+/+g.I.:.a.+ . . ",
". . < | ^ 1 n.k *+E.8 s o +.L e+t I r C A `.C O.'+y !+#+;.;.J.L J ..e+[.M m }.5 g+/.V.q+m+|.n.d p.n 1+r+^+L.-.!.i /.F l + . . ",
". . [ 7 ^ d j h C p.O 6 K '.l.p.^  .c.#+;+S.=+s.]+b+ +;.{.U G.3 +.g+q.I } ).~ M @.!+p+d.Z.l p m.c.=+].k+,+x.=+P n+5.>.q.@ . . ",
". . { ` ^ ..w.Y.#.J 4 n+s.%.$.H.:.w.W {.6.c+#+z {.f+R c+L.x.W 6 ( d V 5 v { > < d W ]+.+}+m.* | g R ].d.a+++%.0.g+w.r.K @ . . ",
". . Z ( m l r.w '.n P.&.d.s+u.%+t+ +X b+*.u+Y.#.J./.;.^.2+u.X l.H m 5 E.q : ! , _ j I.r.n 0 M 0 f s.-.-.d+u+!+'.q n.6 m.+ . . ",
". . s 6 c.g.O.G V w.`.e.C.N.v+0+w+`.f+-+5+Q g.5 m k H.l+x.j.h.9.w.4 n m.H o - ~ [.8 0 1 I q 3 '.E >.i =.P./.j 5 g+q _ o + . . ",
". . s p.(+Y.{+L P s.;+~+4.t.W.<+8.@+]+-+t+h G g+L H K W T a+8.^.D.,.E.^ / / Y 7 ` } % = t 5 P I.=.g.F >.5.Q.g+q ,.p.I m.# . . ",
". . { 1 n /+,.+.C [+]+t+R.9.L.W.L.&.A -./.j <.f #.o p.Q.S m+f.-+w (+'.I 8 1 1 I o 7 < [ ^ 4 I.W x R.n+i+.+5+#.j :. .I 2 > . . ",
". . ~ c ( g+j D.n+'+ +/.w.k.>+4+w+|+x n+w.w.i+l+W ( J s..+~.#+i+J./.g.+.a.+.+.p.2 1 o n.l P G.W 5.U.z ~.&.l+(+G.!+<.v v s . . ",
". . = [.` @.I.|+y Q.i+x /.t+~+8..+I.:.*+*+_+`.:+W e+n =+d+U.O.r r.k.g p.d '.'.d e+a.<.w.I.g.E g H.F.k.%.t+}+H P G.l u ] Y . . ",
". . > M ^ L }+X x H.D Q.#+:+_.c+_+n 2  .k  +c+1.Y.m o.Y.b+t+V 0 *+n+e 7 8 L n m.O 3 C i+k.D l.J l 0.e l.k L u o E.J o ] 9 . . ",
". . b : / +.|.=.w }...:./.`.++S w 6 O J (+%.5+y P  .,.5.(.@+i+4 {+}+(+^ } v / ^ N ,.1+U.K.g.}.m...e {+r e+q r m L l q v ' . . ",
". . % ).Y H 5 E.r.{+/ N l. +;+4.K.,.,.f D k.Q.f +.e+:.9.U *.=+E C J.f  .v ^ / O 6 l.n+ +K.F 4 3 k g =.G 6 q.D.w.e }.p.v @ . . ",
". . ! $ ).o J L D }+H / m Q.x.x+.+D C D.g.Y.J.l.H 3 I.s.Q.Y._+R./.Y.!.l.K n +.5 <.q.C k.R.j <.P h i _+J.,./+Q.k.h '. .b.+ . . ",
". . ! ; > / J }.D !.N o |.A e.k+{.=.g g.>.Q 5.!.5 q./+E ,.l.I.Q ;.!+D H.w g |.:.#.G {+f j J 5 Q.f+B '+n+H.n+!+s.>.4 ( < + . . ",
". . a $ = o 3 o.#.D V c.B 7+j+&+l+c.,.w.s.f.c+#+E #.#.0.5 J q.J.k.h G D 1+w g h Q.D.4 n._ ] @.Q ^.d+F.P >.5.$.Q.w.J 7 ; . . . ",
". . ' ! b v ..5 *+G.;.`.u.y+y+_.n+a.I c.B h.p+|+P.n+J.(+c.q.+.5 l.+.( r e l.0.k.b+-.:.Y $ = 6 R.X _+4 K  +S y }+q.O { @ . . . ",
". . @ a ! Y n.m 6 c.Z.T L.7.&+h+(+~ > n.i+&.A F.G.=+!+D.D !.3 o 1 p * = : s 1 Y.4.4.Q.8 ) * N f g l.r g..+d+G.*+m u * + . . . ",
". . + @ ' [ _ O t 3 %.%+;+U :+d+G c < { L =.!.r P '+'+w O.(+3 ` s [.s M ~ * M D.x.9+d+@.# $ | l.'.E.}.Y.;.i+l.I b.~ & . . . . ",
". . . . . ; Z p Y e+D.|+`.Y.D.x w...m.| ] H d ] q D.G.f e F w 5 t 2 4 (+K H K 5.3.y.%+'.; 9 m.C P.g.{+*+G g+0 - $ & @ . . . . ",
". . . . . ! > - } [.O :.1+l 2 *+E P q.J I N d / p m 4 n '.5.*.~.n+n+%.b+d+t+.+>+j+4+@+e [ o D.5+1.=+F '.m.u s , a ) + . . . . ",
". . . . . ) ! % ).9 } H l.@.n.5 f J.P K l *+g j N { p 8 K t+d.3.d.u.L.e.x+7.q+z.z+j+T.k ] 0.R _.m+i+G o.1 : [., ) @ . . . . . ",
". . . . . . . . b - [ v a.@...m.J g #.n o.n+B 9.g ] & 9 +.R 2+y.o+M.v+z+W.y+0+0+y+7.-+E.v e X T.-.c. ./ p { ).! . . . . . . . ",
". . . . . . . . % ).< u (  .m.M { n.J 1 q !+w+p+#+m & % r d+u.t.>+&+z+v+,+L.w+++8+w+'+l e+@.#.G.w.l 2 : ).> b # . . . . . . . ",
". . . . . . . . a $ > s ] u 8 7 { - < Z L -.8.^+u+r % b 5 9.f.-.k.:+0+M.x+~.w.D.-.9.!.G q.d 5 q.4 l  .} % ! a @ . . . . . . . ",
". . . . . . . . + ' a * ).~ { ] ] Z Z m.Y.T j.i.u+L b 9 d i+%.D {+z &+z.8.U.e+I f g P !+_+<.+.}.<.d u , a @ + . . . . . . . . ",
". . . . . . . . . @ ' % b b ; - s v L g.d+>+t.w+K.J b.o (+t+1.Q.r.%.7+i.u.h+0.m *+}.c.W }+J _ m.p./ [ & ) + + . . . . . . . . ",
". . . . . . . . . . + ) # & % $ > v V _+R h+T d+w._ / 0.U.].].v.G.f+x.t.u.++R.E F.0.3 P e 1 [ Z : - & ' + . . . . . . . . . . ",
". . . . . . . . . . . . . @ # & & Z ..w.R. +;./.<.{ [ E.K.S ~.D./+9.{.T.T {.#+_+F.K _  . .Y = b % a . . . . . . . . . . . . . ",
". . . . . . . . . . . . . + ) ! & 9 | J ,.j |.,.H } * 7 l.F e n. .j >.x K.i+J.O.g+1 < Z M s ~ b ! @ . . . . . . . . . . . . . ",
". . . . . . . . . . . . . . + ' # % 9 c v 0 / 1 _ p } : / a.O 8 | ( 5 O.E f V r I p = 9 ).= b # ' + . . . . . . . . . . . . . ",
". . . . . . . . . . . . . . . . + ' ) $ ).{ { Z ] | u ] b.Y t O O _ / q L 3 @.N 8 : )., & a ' . . . . . . . . . . . . . . . . ",
". . . . . . . . . . . . . . . . + @ ' # $ > = 9 Z Y c Z < { p ` | 7 b.M Y 8 t u M { 9 ; a ) @ . . . . . . . . . . . . . . . . ",
". . . . . . . . . . . . . . . . . + + @ ' a # a & $ % ! # & $ ; ; b * , $ ; b ; % ! a ' @ + + . . . . . . . . . . . . . . . . ",
". . . . . . . . . . . . . . . . . . . . . . . . . . . . . . . . . . . . . . . . . . . . . . . . . . . . . . . . . . . . . . . "};
