/* XPM */
static char * binCentroid_xpm[] = {
"63 53 135 2",
"  	c None",
". 	c #000000",
"+ 	c #FFFFFF",
"@ 	c #040404",
"# 	c #0E0E0E",
"$ 	c #030303",
"% 	c #343434",
"& 	c #161616",
"* 	c #525252",
"= 	c #515151",
"- 	c #1C1C1C",
"; 	c #575757",
"> 	c #121212",
", 	c #020202",
"' 	c #3E3E3E",
") 	c #444444",
"! 	c #252525",
"~ 	c #7E7E7E",
"{ 	c #1A1A1A",
"] 	c #0D0D0D",
"^ 	c #A6A6A6",
"/ 	c #484848",
"( 	c #646464",
"_ 	c #2F2F2F",
": 	c #989898",
"< 	c #1F1F1F",
"[ 	c #6B6B6B",
"} 	c #767676",
"| 	c #222222",
"1 	c #777777",
"2 	c #181818",
"3 	c #323232",
"4 	c #010101",
"5 	c #090909",
"6 	c #1E1E1E",
"7 	c #060606",
"8 	c #151515",
"9 	c #171717",
"0 	c #232323",
"a 	c #080808",
"b 	c #2A2A2A",
"c 	c #050505",
"d 	c #4E4E4E",
"e 	c #838383",
"f 	c #101010",
"g 	c #262626",
"h 	c #979797",
"i 	c #6C6C6C",
"j 	c #7B7B7B",
"k 	c #131313",
"l 	c #6F6F6F",
"m 	c #2E2E2E",
"n 	c #2B2B2B",
"o 	c #141414",
"p 	c #5C5C5C",
"q 	c #8CFF69",
"r 	c #272727",
"s 	c #2D2D2D",
"t 	c #848484",
"u 	c #353535",
"v 	c #6D6D6D",
"w 	c #6EFF41",
"x 	c #3CFF00",
"y 	c #0B0B0B",
"z 	c #4FFF18",
"A 	c #F3FFEF",
"B 	c #0F0F0F",
"C 	c #535353",
"D 	c #0A0A0A",
"E 	c #0C0C0C",
"F 	c #B5FF9E",
"G 	c #828282",
"H 	c #393939",
"I 	c #070707",
"J 	c #676767",
"K 	c #3B3B3B",
"L 	c #303030",
"M 	c #7F7F7F",
"N 	c #3C3C3C",
"O 	c #878787",
"P 	c #A5FF8A",
"Q 	c #727272",
"R 	c #313131",
"S 	c #797979",
"T 	c #454545",
"U 	c #282828",
"V 	c #707070",
"W 	c #4A4A4A",
"X 	c #5F5F5F",
"Y 	c #C4FFB2",
"Z 	c #E3FFDB",
"` 	c #3FFF04",
" .	c #373737",
"..	c #595959",
"+.	c #686868",
"@.	c #9A9A9A",
"#.	c #717171",
"$.	c #626262",
"%.	c #202020",
"&.	c #9FFF82",
"*.	c #4B4B4B",
"=.	c #585858",
"-.	c #4C4C4C",
";.	c #80FF59",
">.	c #61FF31",
",.	c #55FF20",
"'.	c #42FF08",
").	c #F9FFF7",
"!.	c #111111",
"~.	c #74FF49",
"{.	c #424242",
"].	c #696969",
"^.	c #555555",
"/.	c #3A3A3A",
"(.	c #93FF71",
"_.	c #8B8B8B",
":.	c #5A5A5A",
"<.	c #494949",
"[.	c #8C8C8C",
"}.	c #B2FF9A",
"|.	c #191919",
"1.	c #EBEBEB",
"2.	c #DBEBD7",
"3.	c #37EB00",
"4.	c #4D4D4D",
"5.	c #636363",
"6.	c #DEDEDE",
"7.	c #787878",
"8.	c #F0F0F0",
"9.	c #8A8A8A",
"0.	c #D6D6D6",
"a.	c #C4C4C4",
"b.	c #A8A8A8",
"c.	c #AAAAAA",
"d.	c #909090",
". . . . . . . . . . . . . . . . . . . . . . . . . . . . . . . . + + + + + + + + + + + + + + + + + + + + + + + + + + + + + + + ",
". . . . . . . . . . @ @ . . . . . . . . . . . . . . . @ # $ . . + + + + + + + + + + + + + + + + + + + + + + + + + + + + + + + ",
". . $ % & . . . . . * = $ . . . - ; > . . , ' ) . . . ! ~ { . . + + + + + + + + + + + + + + + + + + + + + + + + + + + + + + + ",
". . ] ^ / . . . . . ( ( @ . . . _ : < . . @ [ } . . . | 1 2 . . + + + + + + + + + + + + + + + + + + + + + + + + + + + + + + + ",
". . @ 3 & . . . . . # # 4 . . . 5 6 7 . . 4 8 9 . . . @ ] , . . + + + + + + + + + + + + + + + + + + + + + + + + + + + + + + + ",
". . . 4 . . . . . . . . . . . . . . . . . . . . . . . . . . . . + + + + + + + + + + + + + + + + + + + + + + + + + + + + + + + ",
". . . . . . . . . . . . . > 6 @ . . . . 5 0 a . . . . . . . . . + + + + + + + + + + + + + + + + + + + + + + + + + + + + + + + ",
". . . ! b , . . 4 c , . . d e f . . . . g h ! . . . @ $ . . . . + + + + + + + + + + + + + + + + + + + + + + + + + + + + + + + ",
". . . i j c . . k l m . . n / a . . . . 8 * o . . c p d . . . . + + + + q q q q q q q q + + + + + + + + + + + + + + + + + + + ",
". . . r s , . . & t u . . , $ . . . . . 4 @ 4 . . 7 v p . . . . w w w w x x x x x x x x w w w + + + + + + + + + + + + + + + + ",
". . . 4 4 . . . , y @ . . . . . . . . . . . . . . . 5 a . . . . x x x x x x x x x x x x x x x z A + + + + + + + + + + + + + + ",
". . . . . . . . . . . . . . . . . . . , c 4 . . . . . . . . . . x x x x x x x x x x x x x x x x x + + + + + + + + + + + + + + ",
". . 4 B 7 . . . a c . . . c # , . . . ! C ] . . . D E . . . . . x x x x x x x x x x x x x x x x x F + + + + + + + + + + + + + ",
". . y G H . . I J K . . . L M & . . . N O 8 . . $ ; i . . . . . P P P P P P P P P P x x x x x x x x + + + + + + + + + + + + + ",
". . 5 Q R . . 5 S T . . . U V k . . . ] 6 c . . , W X . . . . . + + + + + + + + + + Y x x x x x x x + + + + + + + + + + + + + ",
". . 4 y @ . . 4 # a . . . $ D , . . . . . . . . . I 5 . . . . . + + + + + + + + + + + Z ` x x x x x + + + + + + + + + + + + + ",
". . . . . . . . . . . . . . . . . . . . . . , , . . . . . . . . + + + + + + + + + + + + + x x x x x + + + + + + + + + + + + + ",
". . . . y ] 4 . . 5 r D . . . 4 & > . . . , R  .. . . . 4 c , . + + + + + + + + + + + + + x x x x x + + + + + + + + + + + + + ",
". . . . ..+.c . . g @.r . . . 7 #.X . . . @ [ } . . . . ] $.%.. + + + + + + + &.&.&.+ + + x x x x x + + + &.&.&.&.+ + + + + + ",
". . . . *.=.@ . . k -.k . . . @ W ' . . . 4 < | . . . . k h R . + + + + + + + x x x ;.;.+ x x x x x + + + x x x x + + + + + + ",
". . . . I a . . . 4 $ 4 . . . . c @ . . . . . . . . . . $ { a . + + + + + + + x x x x x >.x x x x x + >.>.x x x x + + + + + + ",
". . . . . . . . . . . . . . . . . . . . . . . . . . . . . . . . + + + + + + + ,.,.x x x x x x x x x '.x x x x ,.).+ + + + + + ",
". . . 5 !.4 . . . . $ 4 . . 4 # y . . . . 4 $ . . . . . , , . . + + + + + + + + + ~.x x x x x x x x x x x x ~.+ + + + + + + + ",
". . . {.j I . . . # ..r . . 7 ].^.. . . . ! ..B . . . 4 /.* . . + + + + + + + + + + (.x x x x x x x x x x (.+ + + + + + + + + ",
". . . H ].7 . . . & _.K . . c :.<.. . . . H [.9 . . . 4 ..G . . + + + + + + + + + + + }.x x x x x x x }.}.+ + + + + + + + + + ",
". . . c D . . . . @ |.D . . . a I . . . . D |.@ . . . . f 2 . . + + + + + + + + + + + + x x x x x x x + + + + + + + + + + + + ",
"o o o o o o o o o o o o o o o o o o o o o o o o o o o o o o o o 1.1.1.1.1.1.1.1.1.1.1.1.2.3.3.3.3.3.2.1.1.1.1.1.1.1.1.1.1.1.1.",
"+ + + + + + + + + + + + + + + + + + + + + + + + + + + + + + + + . . . . . . . . . . . . . . . . . . . . . . . . . . . . . . . ",
"+ + + + + + + + + + + + + + + + + + + + + + + + + + + + + + + + . . . . . . . . . . . . . . . . . . . . . . . . . . . . . . . ",
"+ + + + + + + + + + + + + + + + + + + + + + + + + + + + + + + + . . . . . . 4.4.4.. . . . . . . . . . . 4.4.4.. . . . . . . . ",
"+ + + + + + + + + + + + + + + + + + + + + + + + + + + + + + + + . . . . . 5.6.6.6.5.. . . . . . . . . 5.6.6.6.5.. . . . . . . ",
"+ + + + + + + + + + + + + + + + + + + + + + + + + + + + + + + + . . . . 7.8.+ + + 8.7.. . . . . . . 7.8.+ + + 8.7.. . . . . . ",
"+ + + + + + + + + + + + + + + + + + + + + + + + + + + + + + + + . . . . 9.+ + + + + 9.. . . . . . . 9.+ + + + + 9.. . . . . . ",
"+ + + + + + + + + + + + + + + + + + + + + + + + + + + + + + + + . . . . :.0.+ + + 0.:.. . . . . . . :.0.+ + + 0.:.. . . . . . ",
"+ + + + + + + + + + + + + + + + + + + + + + + + + + + + + + + + . . . . . ) a.a.a.) . . . . . . . . . ) a.a.a.) . . . . . . . ",
"+ + + + + + + + + + + + + + + + + + + + + + + + + + + + + + + + . . . . . . m m m . . . . . . . . . . . m m m . . . . . . . . ",
"+ + + + + + + + + + + + + + + + + + + + + + + + + + + + + + + + . . . . . . . . . . . . . . . . . . . . . . . . . . . . . . . ",
"+ + + + + + + + + + + + + + + + + + + + + + + + + + + + + + + + . . . . . . . . . . . . . . . . . . . . . . . . . . . . . . . ",
"+ + + + + + + + + + + + + + + + + + + + + + + + + + + + + + + + . . . . . . . . . . . . . . . . . . . . . . . . . . . . . . . ",
"+ + + + + + + + + + + + + + + + + + + + + + + + + + + + + + + + . . . . . . . . . . . . . . . . . . . . . . . . . . . . . . . ",
"+ + + + + + + + + + + + + + + + + + + + + + + + + + + + + + + + . . . . . . . . . . . . . . . . . . . . . . . . . . . . . . . ",
"+ + + + + + + + + + + + + + + + + + + + + + + + + + + + + + + + . . . . . . . . . . . . . . . . . . . . . . . . . . . . . . . ",
"+ + + + + + + + + + + + + + + + + + + + + + + + + + + + + + + + . . . . . . . . ] [.[.[.] . . . . . . . . ] [.[.[.] . . . . . ",
"+ + + + + + + + + + + + + + + + + + + + + + + + + + + + + + + + . . . . . . . 0 b.+ + + b.0 . . . . . . 0 b.+ + + b.0 . . . . ",
"+ + + + + + + + + + + + + + + + + + + + + + + + + + + + + + + + . . . . . . . 9.+ + + + + 9.. . . . . . 9.+ + + + + 9.. . . . ",
"+ + + + + + + + + + + + + + + + + + + + + + + + + + + + + + + + . . . . . . . 9.+ + + + + 9.. . . . . . 9.+ + + + + 9.. . . . ",
"+ + + + + + + + + + + + + + + + + + + + + + + + + + + + + + + + . . . . . . . ! c.+ + + c.! . . . . . . ! c.+ + + c.! . . . . ",
"+ + + + + + + + + + + + + + + + + + + + + + + + + + + + + + + + . . . . . . . . B d.d.d.B . . . . . . . . B d.d.d.B . . . . . ",
"+ + + + + + + + + + + + + + + + + + + + + + + + + + + + + + + + . . . . . . . . . . . . . . . . . . . . . . . . . . . . . . . ",
"+ + + + + + + + + + + + + + + + + + + + + + + + + + + + + + + + . . . . . . . . . . . . . . . . . . . . . . . . . . . . . . . ",
"+ + + + + + + + + + + + + + + + + + + + + + + + + + + + + + + + . . . . . . . . . . . . . . . . . . . . . . . . . . . . . . . ",
"+ + + + + + + + + + + + + + + + + + + + + + + + + + + + + + + + . . . . . . . . . . . . . . . . . . . . . . . . . . . . . . . ",
"+ + + + + + + + + + + + + + + + + + + + + + + + + + + + + + + + . . . . . . . . . . . . . . . . . . . . . . . . . . . . . . . "};
