/* XPM */
static char * el_recon_xpm[] = {
"63 63 11 1",
" 	c None",
".	c #FFFFFF",
"+	c #C7C7C7",
"@	c #393939",
"#	c #E3E3E3",
"$	c #727272",
"%	c #1D1D1D",
"&	c #000000",
"*	c #AAAAAA",
"=	c #555555",
"-	c #8E8E8E",
"...............................................................",
"...............................................................",
"...............................................................",
"...............................................................",
"...............................................................",
"...............................................................",
"...............................................................",
"...............................................................",
"...............................................................",
"...............................................................",
"...............................................................",
"...............................................................",
"...............................................................",
"...............................................................",
"...............................................................",
"...............................................................",
"...............................................................",
"...............................................................",
"...............................................................",
"...............................................................",
"................................................+@.............",
"............#$%&%*..........*=@&&&=+.........+*@&&&&&@-........",
"...........*%==&&&+.......-%=**-@&&&*......-@$*%&-..-&&$.......",
"..........*%#..#&&*.....*%=#.....$&&%....*%=...&&+...@&&.......",
".........+&+....@-.....*&=........@&&*..*&@...*&&....=&&.......",
".........@@...........*&=.........*&&=..%&*...$&=....@&@.......",
"........+&=..........#&&#..........&&=.*&&....@&-...#&&+.......",
"........*&%..........$&$...........&&=.=&&....&&+...@&*........",
"........+&&=........#&&+...........&&=.=&&#..*&&..+%@#.........",
".........@&&=.......-&&............&&-.=&&+..$&%=&$#...........",
".........#%&&%#.....=&=...........*&&+.*$#...@&-@&$............",
"..........#=&&%*....%&=...........-&%........&&+$&%............",
"............=&&%#...&&=...........@&$.......*&%.*&&+...........",
".............=&&*...&&=..........+&%........$&-..&&$...........",
".............#&&*...&&&..........@&*........%%...@&%...........",
"..............&&....@&&-........-&*........+%#...$&&+..........",
"...@#........#&$....-&&%#......-%*........#%*....+&&$..........",
"..+&-........$%#.....%&&%-...*@=#.......+*%*......%&%..........",
"..$&&+......*%#......#=&&&&&%$#......#%&&&&&&@+...$&&+.........",
"..%&&&$+..*@@#..........***#.........+******+.....#&&@.........",
"..#@&&&&&&%-.......................................$&&+........",
"....*===-+.........................................#%&%.....@*.",
"....................................................#%&=...=&%.",
".....................................................#@&%=%&@#.",
"........................................................***#...",
"...............................................................",
"...............................................................",
"...............................................................",
"...............................................................",
"...............................................................",
"...............................................................",
"...............................................................",
"...............................................................",
"...............................................................",
"...............................................................",
"...............................................................",
"...............................................................",
"...............................................................",
"...............................................................",
"...............................................................",
"...............................................................",
"...............................................................",
"..............................................................."};
