/* XPM */
static char * fifo_xpm[] = {
"63 53 3 1",
" 	c None",
".	c #FFFFFF",
"+	c #000000",
"...............................................................",
"...............................................................",
"...............................................................",
"...............................................................",
"...............................................................",
"...............................................................",
"...............................................................",
"...............................................................",
"...............................................................",
"...............................................................",
"...............................................................",
"...............................................................",
"...............................................................",
"...............................................................",
"...............................................................",
"...............................................................",
"...............................................................",
"...............................................................",
"...............................................................",
"...............................................................",
"...............................................................",
"...............................................................",
"...............................................................",
"...............................................................",
"...............................................................",
"...............................................................",
"...............................................................",
"...............................................................",
"...............................................................",
"...............................................................",
"...............+++++++++++.++++++++++.++++++++++...............",
"...............+.........+.+........+.+........+...............",
"...............+.........+.+........+.+........+...............",
"...............+....+....+.+..++....+.+.+++....+...............",
"...............+...++....+.+.+..+...+.+....+...+...............",
".....+++.......+..+.+....+.+.....+..+.+.....+..+.......+++.....",
".....++++......+....+....+.+.....+..+.+....+...+.......++++....",
".....+++++.....+....+....+.+....+...+.+.....+..+.......+++++...",
".++++++++++....+....+....+.+...+....+.+.....+..+...++++++++++..",
".++++++++++....+....+....+.+..+.....+.+....+...+...++++++++++..",
".++++++++++....+..+++++..+.+.+++++..+.+.+++....+...++++++++++..",
".....+++++.....+.........+.+........+.+........+.......+++++...",
".....++++......+.........+.+........+.+........+.......++++....",
".....+++.......+.........+.+........+.+........+.......+++.....",
"...............+++++++++++.++++++++++.++++++++++...............",
"...............................................................",
"...............................................................",
"...............................................................",
"...............................................................",
"...............................................................",
"...............................................................",
"...............................................................",
"..............................................................."};
