/* XPM */
static char * glao_zernike_recon_xpm[] = {
"63 63 20 1",
" 	c None",
".	c #FFFFFF",
"+	c #8E8E8E",
"@	c #C7C7C7",
"#	c #E3E3E3",
"$	c #AAAAAA",
"%	c #727272",
"&	c #000000",
"*	c #1D1D1D",
"=	c #555555",
"-	c #393939",
";	c #FFE7C0",
">	c #FFD896",
",	c #FFD081",
"'	c #FFF7EA",
")	c #FFDFAB",
"!	c #FFB942",
"~	c #FFC057",
"{	c #FFC86C",
"]	c #FFEFD5",
"...............................................................",
"...............................................................",
"...............................................................",
"...............................................................",
"...............................................................",
"...............................................................",
"...............................................................",
"...............................................................",
"...............................................................",
"...............................................................",
"...............................................................",
"...............................................................",
"...............................................................",
"...............................................................",
"...............................................................",
"...............................................................",
"...............................................................",
"...............................................................",
"...............................................................",
"...............................................................",
"...............................................................",
"........+...........@+...........#$.+@.................#$.+@...",
".......%#...........%&..........#%..*=................#%..*=...",
"......+$............$&$.........=#..=&................=#..=&...",
".....#=..............&$........+$...$&...............+$...$&...",
".....-#..............&$.......#-....$&..............#-....$&...",
"....@=...............&$.......%$....$&..............%$....$&...",
"....%@...............&@.......-.....$*..............-.....$*...",
"....*................&.......$%.....$=#$$$$$$$$@...$%.....$=...",
"...$=...............$*.......=$.....=%@========+...=$.....=%...",
"...=$...............$=.......&......=$.............&......=$...",
"...-$...............=$......#&......&.............#&......&....",
"...&................*.......$=.....@=.#$$$$$$$$@..$=.....@=....",
"..@&...............@%..#-...%=.....%@.@========+..%=.....%@....",
"..$&...............=@..-&+..==.....*..............==.....*.....",
"..$&..............#-...$=...==....++..............==....++.....",
"..$&..............=#........==...#=...............==...#=......",
"..@&$............$+.........%&...=#...............%&...=#......",
"...&%...........#%..........$&@.$$................$&@.$$.......",
"...+@...........+............%##$..................%##$........",
"...............................................................",
"..........;>,,>'........'>,;.........;,,>;;,.........;,,,;.....",
"........);'.',!~.......;{,,'.......'~,,,!!!~......'>,;;>!!,....",
"......'{'.....~,......;{..........',.....{!,.....)~'....]!!]...",
".....'~'......;......'!;..........{;....,)!)....>~'......,!,...",
".....~)..............,!..........]!)...));!;...]!).......;!,...",
"....>~...............!{..........;!,..;,.)!]...{~........;!,...",
"...'!>..............]!>..........'>'.'{..,!...]!,........;!>...",
"...)!;...],,,);'....)!;..............{'..{~...)!;........>!;...",
"...,!...';;;~!].....,!..............,~,,,!,...,!;........{~....",
"...!!.......!,......!{.......'.....,>;;;)!,...,!;.......]!)....",
"...!!'.....;!).....]!).......)....,,....;!)...,!,.......{,.....",
"...~!).....,!].....>,.......])..',,.....;!;...;!!'.....,,'.....",
"...>!!)..;,!!.....],.....';){'!!!;......,!>....~!~]..]{).......",
"....>!!~,].!,...>,,,,,,~!!!~;',)'.......,!,>;..'>!!!,)'........",
"..........;!)..................................................",
"..........>~...................................................",
"..........~;...................................................",
".........);....................................................",
"....]~,,,;.....................................................",
"....>,,)'......................................................",
"...............................................................",
"..............................................................."};
