/* XPM */
static char * glao_science_xpm[] = {
"63 63 44 1",
" 	c None",
".	c #000000",
"+	c #0B0B0B",
"@	c #3C3C3C",
"#	c #959595",
"$	c #575757",
"%	c #6C6C6C",
"&	c #616161",
"*	c #363636",
"=	c #151515",
"-	c #686868",
";	c #737373",
">	c #7B7B7B",
",	c #474747",
"'	c #8B8B8B",
")	c #919191",
"!	c #2B2B2B",
"~	c #656565",
"{	c #1F1F1F",
"]	c #3B3B3B",
"^	c #707070",
"/	c #ABABAB",
"(	c #F0F0F0",
"_	c #FFFFFF",
":	c #282828",
"<	c #553D16",
"[	c #8D6624",
"}	c #AA7B2C",
"|	c #1C1407",
"1	c #BC8D3E",
"2	c #8F7750",
"3	c #9D855E",
"4	c #71511D",
"5	c #FFB942",
"6	c #E2A33A",
"7	c #C68F33",
"8	c #DEA74B",
"9	c #CA9437",
"0	c #38280E",
"a	c #A58D66",
"b	c #A4A4A4",
"c	c #8F703B",
"d	c #CE9F50",
"e	c #2E2719",
"...............................................................",
"...............................................................",
"...............................................................",
"...............................................................",
"...............................................................",
"...............................................................",
"...............................................................",
"...............................................................",
"...............................................................",
"...............................................................",
"...............................................................",
"...............................................................",
"...............................................................",
"...............................................................",
"...............................................................",
"...............................................................",
"...............................................................",
"...............................................................",
"...............................................................",
".........................+@#$%%%&*======.......................",
"........................*-;>=...&*$$$$$$%......................",
".......................=>*...............>*....................",
".......................$,................,*....................",
".......................$=.......===.......'*...................",
"......................=$....,)!%$$$%$.....**...................",
"......................**...$~{+....*,%*....$=..................",
"......................**..%%.........$,...=$...................",
"......................**.=$...........*&..=$...................",
"......................>,.%...+]^^]+....>=..%...................",
"......................**=$...]/((/]....%...$,..................",
"......................%.=$...^(__(^....%...$,..................",
".....................=$..%...^(__(^....$=..**..................",
".....................=$..%...]/((/]....$=..**..................",
".....................**..$=..+]^^]+....%...:$..................",
".....................**..~=...........~$...>*..................",
".....................**..>*...........~=...%...................",
".....................**...%.........$%....>*...................",
".....................=$...%......=$$~=....~=...................",
".....................=>...=>===*>$~:.....**....................",
"...........<[}}[|.....&*.|[12$$*,.....<}}[3<}.........<}}}<....",
".........4<|.|}56.....=$<7}}|.......|6}}}5556......|[}<<[55}...",
".......|7|.....6}......<8..........|}....$95}.....46|....0550..",
"......|6|......<......|5a$.........7<..*b1454....[6|......}5}..",
"......64..............}5.%'.......054*$*c4<5<...054.......<5}..",
".....[6...............57..*%$$$$$$25d&,<}.450...76........<5}..",
"....|5[..............05[....======e[|.|7..}5...05}........<5[..",
"....45<...0}}}4<|....45<..............7|..76...45<........[5<..",
"....}5...|<<<650.....}5..............}6}}}5}...}5<........76...",
"....55.......5}......57.......|.....}[<<<45}...}5<.......054...",
"....55|.....<54.....054.......4....}}....<54...}5}.......7}....",
"....654.....}50.....[}.......04..|}}.....<5<...<55|.....}}|....",
"....[554..<}55.....0}.....|<47|555<......}5[....6560..074......",
".....[556}0.5}...[}}}}}}65556<|}4|.......}5}[<..|[555}4|.......",
"...........<54.................................................",
"...........[6..................................................",
"...........6<..................................................",
"..........4<...................................................",
".....06}}}<....................................................",
".....[}}4|.....................................................",
"...............................................................",
"...............................................................",
"...............................................................",
"..............................................................."};
