/* XPM */
static char * glao_tiltsens_xpm[] = {
"63 63 106 2",
"  	c None",
". 	c #FFFFFF",
"+ 	c #333333",
"@ 	c #151515",
"# 	c #818181",
"$ 	c #202020",
"% 	c #040404",
"& 	c #E1E1E1",
"* 	c #020202",
"= 	c #565656",
"- 	c #999999",
"; 	c #B8B8B8",
"> 	c #0C0C0C",
", 	c #121212",
"' 	c #2F2F2F",
") 	c #010101",
"! 	c #F9F9F9",
"~ 	c #2E2E2E",
"{ 	c #030303",
"] 	c #595959",
"^ 	c #131313",
"/ 	c #AAAAAA",
"( 	c #000000",
"_ 	c #5A5A5A",
": 	c #060606",
"< 	c #1A1A1A",
"[ 	c #5F5F5F",
"} 	c #FCFCFC",
"| 	c #BFBFBF",
"1 	c #434343",
"2 	c #1B1B1B",
"3 	c #747474",
"4 	c #2C2C2C",
"5 	c #DADADA",
"6 	c #6B6B6B",
"7 	c #181818",
"8 	c #0D0D0D",
"9 	c #BBBBBB",
"0 	c #C1C1C1",
"a 	c #080808",
"b 	c #0B0B0B",
"c 	c #A2A2A2",
"d 	c #3A3A3A",
"e 	c #363636",
"f 	c #ACACAC",
"g 	c #F0F0F0",
"h 	c #828282",
"i 	c #1E1E1E",
"j 	c #111111",
"k 	c #6A6A6A",
"l 	c #D8D8D8",
"m 	c #252525",
"n 	c #090909",
"o 	c #E2E2E2",
"p 	c #6E6E6E",
"q 	c #171717",
"r 	c #373737",
"s 	c #A8A8A8",
"t 	c #050505",
"u 	c #2B2B2B",
"v 	c #9B9B9B",
"w 	c #101010",
"x 	c #545454",
"y 	c #AFAFAF",
"z 	c #141414",
"A 	c #7F7F7F",
"B 	c #3E3E3E",
"C 	c #3B3B3B",
"D 	c #B4B4B4",
"E 	c #ADADAD",
"F 	c #292929",
"G 	c #0A0A0A",
"H 	c #444444",
"I 	c #616161",
"J 	c #070707",
"K 	c #1D1D1D",
"L 	c #9A9A9A",
"M 	c #474747",
"N 	c #C5C5C5",
"O 	c #6F6F6F",
"P 	c #606060",
"Q 	c #242424",
"R 	c #454545",
"S 	c #212121",
"T 	c #959595",
"U 	c #8B8B8B",
"V 	c #7E7E7E",
"W 	c #FEFEFE",
"X 	c #FFE7C0",
"Y 	c #FFD896",
"Z 	c #FFD081",
"` 	c #FFF8ED",
" .	c #FFF7EA",
"..	c #FFD185",
"+.	c #FFEED3",
"@.	c #FFEAC9",
"#.	c #FFF2DE",
"$.	c #FFE3B4",
"%.	c #FFDCA3",
"&.	c #FFD48C",
"*.	c #FFDFAB",
"=.	c #FFB942",
"-.	c #FFC057",
";.	c #FFC86C",
">.	c #FFF9F0",
",.	c #FFEFD5",
". . . . . . . . . . . . . . . . . . . . . . . . . . . . . . . . . . . . . . . . . . . . . . . . . . . . . . . . . . . . . . . ",
". . . . . . . . . . . . . . . . . . . . . . . . . . . . . . . . . . . . . . . . . . . . . . . . . . . . . . . . . . . . . . . ",
". . . . . . . . . . . . . . . . . . . . . . . . . . . . . . . . . . . . . . . . . . . . . . . . . . . . . . . . . . . . . . . ",
". . . . . . . . . . . . . . . . . . . . . . . . . . . . . + + . . . . . . . . . . . . . . . . . . . . . . . . . . . . . . . . ",
". . . . . . . . . . . . . . . . . . . . . . . . . . . . . @ @ . . . . . . . . . . . . . . . . . . . . . . . . . . . . . . . . ",
". . . . . . . . . . . . . . . . . . . . . . . . . . . . . @ @ . . . . . . . . . . . . . . . . . . . . . . . . . . . . . . . . ",
". . . . . . . . . . . . . . . . . . . . . . . . . . . . . @ @ . . . . . . . . . . . . . . . . . . . . . . . . . . . . . . . . ",
". . . . . . . . . . . . . . . . . . . . . # # . . . . . . @ @ . . . . . . . . . . . . . . . . . . . . . . . . . . . . . . . . ",
". . . . . . . . . . . . . . . . . . . . . $ % . . . . . . @ @ . . . . . . . . . . . . . . . . . . . . . . . . . . . . . . . . ",
". . . . . . . . . . . . . . . . . . . . . & * = . . . - ; > , . . . . . . . . . . . . . . . . . . . . . . . . . . . . . . . . ",
". . . . . . . . . . . . . . . . . . . . . . ' ) ! . + - ~ > , . . . . . . . . . . . . . . . . . . . . . . . . . . . . . . . . ",
". . . . . . . . . . . . . . . . . . . . . . ! { ] ^ / . . @ @ . . . . . . . . . . . . . . . . . . . . . . . . . . . . . . . . ",
". . . . . . . . . . . . . . . . . . . . . . . ' ( _ ! . . @ @ . . . . . . . . . . . . . . . . . . . . . . . . . . . . . . . . ",
". . . . . . . . . . . . . . . . . . . . . . . ! : < . . . @ @ . . . . . . . . . . . . . . . . . . . . . . . . . . . . . . . . ",
". . . . . . . . . . . . . . . . . . . . . . . . [ ) & . . @ @ . . . . . . . . . . . . . . . } | 1 2 3 . . . . . . . . . . . . ",
". . . . . . . . . . . . . . . . . . . . . . . . . : 4 . . @ @ . . . . . . . . . . . . . 5 6 7 ) ( ( 8 . . . . . . . . . . . . ",
". . . . . . . . . . . . . . . . . . . . . . . . . [ ) 9 . @ @ . . . . . . . . . . . 0 1 a ( ( ( ( ( + . . . . . . . . . . . . ",
". . . . . . . . . . . . . . . . . . . . . . . . . . b ^ . @ @ . . . . . . . . } c d : ( ( ( ( ( * e 0 . . . . . . . . . . . . ",
". . . . . . . . . . . . . . . . . . . . . . . . . . f ( 9 @ @ . . . . . . g h i ) ( ( ( ( ( j k l . . . . . . . . . . . . . . ",
". . . . . . . . . . . . . . . . . . . . . . . . . . . b ^ m n . . . . o p > ( ( ( ( ( ) q h g . . . . . . . . . . . . . . . . ",
". . . . . . . . . . . . . . . . . . . . . . . . . . . f ( r * . . s ' t ( ( ( ( ( t u v g . . . . . . . . . . . . . . . . . . ",
". . . . . . . . . . . . . . . . . . . . . . . . . . . . w : ) h 7 ) ( ( ( ( ( a x 5 . . . . . . . . . . . . . . . . . . . . . ",
". . . . . . . . . . . . . . . . . . . . . . . . . . . . y ( ( ) ( ( ( ( ) z A g . . . . . . . . . . . . . . . . . . . . . . . ",
". . . . . . . . . . . . . . . . . . . . . . . . . . 0 B t ( ( ( ( ( { C D } . . . . . . . . . . . . . . . . . . . . . . . . . ",
". . . . . . . . . . . . . . . . . . . . . . . } E F * ( ( ( ( ( G H 0 . . . . . . . . . . . . . . . . . . . . . . . . . . . . ",
". . . . . . . . . . . . . . . . . . . . . g A z ) ( ( ( ( ) @ I l . . . . . . . . . . . . . . . . . . . . . . . . . . . . . . ",
". . . . . . . . . . . . . . . . . . } | H J ( ( ( ( ( ) K L . . . . . . . . . . . . . . . . . . . . . . . . . . . . . . . . . ",
". . . . . . . . . . . . . . . . g v u % ( ( ( ( ( J M N . . . . . . . . . . . . . . . . . . . . . . . . . . . . . . . . . . . ",
". . . . . . . . . . . . . . g h , ( ( ( ( ( ( > O o . . . . . . . . . . . . . . . . . . . . . . . . . . . . . . . . . . . . . ",
". . . . . . . . . . . . l P G ( ( ( ( ( { Q h g . . . . . . . . . . . . . . . . . . . . . . . . . . . . . . . . . . . . . . . ",
". . . . . . . . . . 5 R { ( ( ( ( ( a d c } . . . . . . . . . . . . . . . . . . . . . . . . . . . . . . . . . . . . . . . . . ",
". . . . . . . . . . L { ( ( ( ( G x 5 . . . . . . . . . . . . . . . . . . . . . . . . . . . . . . . . . . . . . . . . . . . . ",
". . . . . . . . . . L a ( ) S T g . . . . . . . . . . . . . . . . . . . . . . . . . . . . . . . . . . . . . . . . . . . . . . ",
". . . . . . . . . . 5 U V | } . . . . . . . . . . . . . . . . . . . . . . . . . . . . . . . . . . . . . . . . . . . . . . . . ",
". . . . . . . . . . . . . . . . . . . . . . . . . . . . . . . . . . . . . . . . . . . . . . . . . . . . . . . . . . . . . . . ",
". . . . . . . . . . . . . . . . . . . . . . . . . . . . . . . . . . . . . . . . . . . . . . . . . . . . . . . . . . . . . . . ",
". . . . . . . . . . . . . . . . . . . . . . . . . . . . . . . . . . . . . . . . . . . . . . . . . . . . . . . . . . . . . . . ",
". . . . . . . . . . . . . . . . . . . . . . . . . . . . . . . . . . . . . . . . . . . . . . . . . . . . . . . . . . . . . . . ",
". . . . . . . . . . . . . . . . . . . . . . . . . . . . . . . . . . . . . . . . . . . . . . . . . . . . . . . . . . . . . . . ",
". . . . . . . . . . . . . . . . W . . . . . . . . . . . . . . . . . . . . . . . . . . . . . . . . . . . . . . . . . . . . . . ",
". . . . . . . . . . . . . . . . . . . . . . . . . . . . . . . . . . . . . . . . . . . . . . . . . . . . . . . . . . . . . . . ",
". . . . . . . . . . X Y Z Z Y ` . . . . . . . .  .Y ..+.. . . . . . . . . @.Z Z Y X X Z . . . . . . . . . #.$.%.&.X . . . . . ",
". . . . . . . . *.X  ..  .Z =.-.. . . . . . . X ;.Z Z  .. . . . . . . >.-.Z Z Z =.=.=.-.. . . . . .  .Y Z X X Y =.=.Z . . . . ",
". . . . . .  .;. .. . . . . -.Z . . . . . . X ;.. . . . . . . . . .  .Z . . . . . ;.=.Z . . . . . *.-. .. . . . ,.=.=.,.. . . ",
". . . . .  .-. .. . . . . . X . . . . . .  .=.X . . . . . . . . . . ;.X . . . . Z *.=.*.. . . . Y -. .. . . . . . Z =.Z . . . ",
". . . . . -.*.. . . . . . . . . . . . . . Z =.. . . . . . . . . . ,.=.*.. . . *.*.X =.X . . . ,.=.*.. . . . . . . X =.Z . . . ",
". . . . Y -.. . . . . . . . . . . . . . . =.;.. . . . . . . . . . X =.Z . . X Z . *.=.,.. . . ;.-.. . . . . . . . X =.Z . . . ",
". . .  .=.Y . . . . . . . . . . . . . . ,.=.Y . . . . . . . . . .  .Y  ..  .;.. . Z =.. . . ,.=.Z . . . . . . . . X =.Y . . . ",
". . . *.=.X . . . ,.Z Z Z *.X  .. . . . *.=.X . . . . . . . . . . . . . . ;. .. . ;.-.. . . *.=.X . . . . . . . . Y =.X . . . ",
". . . Z =.. . .  .X X X -.=.,.. . . . . Z =.. . . . . . . . . . . . . . Z -.Z Z Z =.Z . . . Z =.X . . . . . . . . ;.-.. . . . ",
". . . =.=.. . . . . . . =.Z . . . . . . =.;.. . . . . . .  .. . . . . Z Y X X X *.=.Z . . . Z =.X . . . . . . . ,.=.*.. . . . ",
". . . =.=. .. . . . . X =.*.. . . . . ,.=.*.. . . . . . . *.. . . . Z Z . . . . X =.*.. . . Z =.Z . . . . . . . ;.Z . . . . . ",
". . . -.=.*.. . . . . Z =.,.. . . . . Y Z . . . . . . . ,.*.. .  .Z Z . . . . . X =.X . . . X =.=. .. . . . . Z Z  .. . . . . ",
". . . Y =.=.*.. . X Z =.=.. . . . . ,.Z . . . . .  .X *.;. .=.=.=.X . . . . . . Z =.Y . . . . -.=.-.,.. . ,.;.*.. . . . . . . ",
". . . . Y =.=.-.Z ,.. =.Z . . . Y Z Z Z Z Z Z -.=.=.=.-.X  .Z *. .. . . . . . . Z =.Z Y X . .  .Y =.=.=.Z *. .. . . . . . . . ",
". . . . . . . . . . X =.*.. . . . . . . . . . . . . . . . . . . . . . . . . . . . . . . . . . . . . . . . . . . . . . . . . . ",
". . . . . . . . . . Y -.. . . . . . . . . . . . . . . . . . . . . . . . . . . . . . . . . . . . . . . . . . . . . . . . . . . ",
". . . . . . . . . . -.X . . . . . . . . . . . . . . . . . . . . . . . . . . . . . . . . . . . . . . . . . . . . . . . . . . . ",
". . . . . . . . . *.X . . . . . . . . . . . . . . . . . . . . . . . . . . . . . . . . . . . . . . . . . . . . . . . . . . . . ",
". . . . ,.-.Z Z Z X . . . . . . . . . . . . . . . . . . . . . . . . . . . . . . . . . . . . . . . . . . . . . . . . . . . . . ",
". . . . Y Z Z *. .. . . . . . . . . . . . . . . . . . . . . . . . . . . . . . . . . . . . . . . . . . . . . . . . . . . . . . ",
". . . . . . . . . . . . . . . . . . . . . . . . . . . . . . . . . . . . . . . . . . . . . . . . . . . . . . . . . . . . . . . ",
". . . . . . . . . . . . . . . . . . . . . . . . . . . . . . . . . . . . . . . . . . . . . . . . . . . . . . . . . . . . . . . "};
