/* XPM */
static char * glao_zdm_xpm[] = {
"63 63 162 2",
"  	c None",
". 	c #FFFFFF",
"+ 	c #4EF74E",
"@ 	c #AAFBAA",
"# 	c #1FF51F",
"$ 	c #05F405",
"% 	c #9DFB9D",
"& 	c #BCFCBC",
"* 	c #68F868",
"= 	c #19F519",
"- 	c #09F409",
"; 	c #3DF63D",
"> 	c #28F628",
", 	c #18F518",
"' 	c #04F404",
") 	c #06F406",
"! 	c #14F514",
"~ 	c #0BF40B",
"{ 	c #0EF40E",
"] 	c #F9FFF9",
"^ 	c #76F976",
"/ 	c #52F752",
"( 	c #75F975",
"_ 	c #24F524",
": 	c #1BF51B",
"< 	c #53F753",
"[ 	c #2FF62F",
"} 	c #D0FDD0",
"| 	c #50F750",
"1 	c #07F407",
"2 	c #26F626",
"3 	c #CEFDCE",
"4 	c #0DF40D",
"5 	c #15F515",
"6 	c #CCFDCC",
"7 	c #11F511",
"8 	c #F3FEF3",
"9 	c #0CF40C",
"0 	c #36F636",
"a 	c #83FA83",
"b 	c #08F408",
"c 	c #49F749",
"d 	c #31F631",
"e 	c #6DF96D",
"f 	c #65F865",
"g 	c #ADFBAD",
"h 	c #80F980",
"i 	c #4FF74F",
"j 	c #12F512",
"k 	c #58F858",
"l 	c #17F517",
"m 	c #3CF63C",
"n 	c #21F521",
"o 	c #32F632",
"p 	c #4DF74D",
"q 	c #55F855",
"r 	c #53F853",
"s 	c #F0F0F0",
"t 	c #A3A3A3",
"u 	c #4B4B4B",
"v 	c #282828",
"w 	c #1D1D1D",
"x 	c #181818",
"y 	c #202020",
"z 	c #292929",
"A 	c #585858",
"B 	c #929292",
"C 	c #BFBFBF",
"D 	c #E3E3E3",
"E 	c #6F6F6F",
"F 	c #191919",
"G 	c #020202",
"H 	c #000000",
"I 	c #040404",
"J 	c #343434",
"K 	c #A2A2A2",
"L 	c #FCFCFC",
"M 	c #C5C5C5",
"N 	c #444444",
"O 	c #060606",
"P 	c #010101",
"Q 	c #232323",
"R 	c #595959",
"S 	c #030303",
"T 	c #111111",
"U 	c #1A1A1A",
"V 	c #0C0C0C",
"W 	c #171717",
"X 	c #505050",
"Y 	c #787878",
"Z 	c #090909",
"` 	c #050505",
" .	c #333333",
"..	c #151515",
"+.	c #9B9B9B",
"@.	c #0F0F0F",
"#.	c #3F3F3F",
"$.	c #A6A6A6",
"%.	c #B7B7B7",
"&.	c #767676",
"*.	c #727272",
"=.	c #C2C2C2",
"-.	c #919191",
";.	c #141414",
">.	c #0E0E0E",
",.	c #848484",
"'.	c #C1C1C1",
").	c #080808",
"!.	c #535353",
"~.	c #393939",
"{.	c #3A3A3A",
"].	c #3E3E3E",
"^.	c #4D4D4D",
"/.	c #686868",
"(.	c #303030",
"_.	c #2E2E2E",
":.	c #2C2C2C",
"<.	c #B1B1B1",
"[.	c #B8B8B8",
"}.	c #B4B4B4",
"|.	c #1F1F1F",
"1.	c #414141",
"2.	c #6E6E6E",
"3.	c #656565",
"4.	c #CBCBCB",
"5.	c #707070",
"6.	c #737373",
"7.	c #676767",
"8.	c #563F17",
"9.	c #BE9755",
"0.	c #FFD081",
"a.	c #FFD896",
"b.	c #FFF7EA",
"c.	c #AD7E2F",
"d.	c #654D26",
"e.	c #FFE7C0",
"f.	c #9F8860",
"g.	c #AB7C2D",
"h.	c #FFDFAB",
"i.	c #1D1609",
"j.	c #FFB942",
"k.	c #FFC057",
"l.	c #FFC86C",
"m.	c #B18233",
"n.	c #2E2719",
"o.	c #E2A43A",
"p.	c #FFEFD5",
"q.	c #72531E",
"r.	c #553D16",
"s.	c #38280E",
"t.	c #AA7B2C",
"u.	c #E8B96A",
"v.	c #969696",
"w.	c #ACACAC",
"x.	c #634B24",
"y.	c #7C5D28",
"z.	c #48391E",
"A.	c #CA9437",
"B.	c #E4A63C",
"C.	c #966F2D",
"D.	c #7F7F7F",
"E.	c #E1E1E1",
". . . . . . . . . . . . . . . . . . . . . . . . . . . . . . . . . . . . . . . . . . . . . . . . . . . . . . . . . . . . . . . ",
". . . . . . . . . . . . . . . . . . . . . . . . . . . . . . . . . . . . . . . . . . . . . . . . . . . . . . . . . . . . . . . ",
". . . . . . . . . . . . . . . . . . . . . . . . . . . . . . . . . . . . . . . . . . . . . . . . . . . . . . . . . . . . . . . ",
". . . . . . . . . . . . . . . . . . . . . . . . . . . . . . . . . . . . . . . . . . . . . . . . . . . . . . . . . . . . . . . ",
". . . . . + @ . . . . . . . . . . . . . . . . . . . . . . . . . . . . . . . . . . . . . . . . . . . . . . . . . . . . . . . . ",
". . . . . # $ % . . . . . . . . . . . . . . . . . . . . . . . . . . . . . . . . . . . . . . . & * # = = - ; . . . . . . . . . ",
". . . . . . > $ % . . . . . . . . . . . . . . . . . . . . . . . . . . . . . . . . . . . . . , ' ) ! = ~ ' { . . . . . . . . . ",
". . . . . . ] > $ ^ . . . . . . . . . . . . . . . . . . . . . . . . . . . . . . . . . . . . . . . . / ' $ ( . . . . . . . . . ",
". . . . . . . . _ $ % . . . . . . . . . . . . . . . . . . . . . . . . . . . . . . . . . . . . . ] : $ < ' ] . . . . . . . . . ",
". . . . . . . . . [ $ % . . . . . . . . . . . . . . . . . . . . . . . . . . . . . . . . . . . } { - % | 1 . . . . . . . . . . ",
". . . . . . . . . . 2 $ ^ . . . 3 . . . . . . . . . . . . . . . . . . . . . . . . . . . . . } ) 4 } . = 5 . . . . . . . . . . ",
". . . . . . . . . . . _ $ % . . ' 6 . . . . . . . . . . . . . . . . . . . . . . . . . . . % ) 7 8 . . 9 0 . . . . . . . . . . ",
". . . . . . . . . . . . [ ' a . b c . . . . . . . . . . . . . . . . . . . . . . . . . . / ' > ] . . . 1 @ . . . . . . . . . . ",
". . . . . . . . . . . . . d $ e 5 5 . . . . . . . . . . . . . . . . . . . . . . . . . ! $ f . . . . . * . . . . . . . . . . . ",
". . . . . . . . . . 6 g . . d $ : 4 . . . . . . . . . . . . . . . . . . . . . . . ] : $ h . . . . . . . . . . . . . . . . . . ",
". . . . . . . . . . i ' ' 1 j b ' ' . . . . . . . . . . . . . . . . . . . . . . } { - % . . . . . . . . . . . . . . . . . . . ",
". . . . . . . . . . . . 6 k = l ' ' k . . . . . . . . . . . . . . . . . . . . % ) { } . . . . . . . . . . . . . . . . . . . . ",
". . . . . . . . . . . . . . . . . m ' a . . . . . . . . . . . . . . . . . . % $ n ] . . . . . . . . . . . . . . . . . . . . . ",
". . . . . . . . . . . . . . . . . . d ' e . . . . . . . . . . . . . . . . / ' [ . . . . . . . . . . . . . . . . . . . . . . . ",
". . . . . . . . . . . . . . . . . . . m $ f . . . . . . . . . . . . . ] : $ f . . . . . . . . . . . . . . . . . . . . . . . . ",
". . . . . . . . . . . . . . . . . . . . / ' e . . . . . . . . . . . ] 4 - % . . . . . . . . . . . . . . . . . . . . . . . . . ",
". . . . . . . . . . . . . . . . . . . . . o ' f . . . . . . . . . } { b & . . . . . . . . . . . . . . . . . . . . . . . . . . ",
". . . . . . . . . . . . . . . . . . . . . . < $ f . . . . . . . % ) { } . . . . . . . . . . . . . . . . . . . . . . . . . . . ",
". . . . . . . . . . . . . . . . . . . . . . . / ' p . . . . . q ' > ] . . . . . . . . . . . . . . . . . . . . . . . . . . . . ",
". . . . . . . . . . . . . . . . . . . . . . . . p ' f . . . / ' q . . . . . . . . . . . . . . . . . . . . . . . . . . . . . . ",
". . . . . . . . . . . . . . . . . . . . . . . . . f ' f ] : $ f . . . . . . . . . . . . . . . . . . . . . . . . . . . . . . . ",
". . . . . . . . . . . . . . . . . . . . . . . . . . f ' b - % . . . . . . . . . . . . . . . . . . . . . . . . . . . . . . . . ",
". . . . . . . . . . . . . . . . . . . . . . . . . . . r 5 } . . . . . . . . . . . . . . . . . . . . . . . . . . . . . . . . . ",
". . . . . . . . . . . . . . . . . s t u v w x w w x w w x w y z A B C s . . . . . . . . . . . . . . . . . . . . . . . . . . . ",
". . . . . . . . . . . . . . D E F G H H H H H H H H H H H H H H H H H I J K L . . . . . . . . . . . . . . . . . . . . . . . . ",
". . . . . . . . . . . . M N O H H H H H H H H H H H H H H H H H H H H H H P Q t s . . . . . . . . . . . . . . . . . . . . . . ",
". . . . . . . . . . D R S H H H H H H G T w x w w x w w H G U V I P H H H H H H S W X t D . . . . . . . . . . . . . . . . . . ",
". . . . . . . . L Y Z H H H H H `  .C L . . . . . . . . H ... . . s +.Q P H H H H H H H S @.#.$.s . . . . . s %.&.*.=.. . . . ",
". . . . . . . -.;.H H H H H >.,.s . . . . . . . . . . . H ... . . . . . '. .S H H H H H H H H H G ).U w x @.P H H G !.. . . . ",
". . . . . . . ~.H H H H S {.s . . . . . . . . . . . . . H ... . . . . . . . s $.].>.S P H H H H H H H H H H H H H H ^.. . . . ",
". . . . . . . /.I H G (..._.. . . . . . . . . . . . . . H ... . . . . . . . . . . . D t X H S H H H H H H H H H S :.<.. . . . ",
". . . . . . . D [.[.D . P ^.. . . . . . . . . . . . . . H ... . . . . . . . . . . . . . . H s }.A v y w x |.1.K L . . . . . . ",
". . . . . . . . . . . . G 2.. . . . . . . . . . . . . . H ... . . . . . . . . . . . . . . H . . . . . . . . . . . . . . . . . ",
". . . . . . . . . . . . G 2.. . . . . . . . . . . . . . G 3.. . . . . . . . . . . . . . 4.H . . . . . . . . . . . . . . . . . ",
". . . . . . . . . . . . G 2.. . . . . . . . . . . . . . S 5.. . . . . . . . . . . . . . 6.S . . . . . . . . . . . . . . . . . ",
". . . . . . . . . . . . G 2.. . . . . . . . . . . . . . S 7.. . . . . . . . . . . . . . 5.S . . . . . . . . . . . . . . . . . ",
". . . . . . . . . . . . 8.9.0.0.a.b.. . . . . . . . b.a.c.d.. . . . . . . . . e.0.0.a.e.f.g.. . . . . . . . . e.0.0.0.e.. . . ",
". . . . . . . . . . h.e.i.2.b.0.j.k.. . . . . . . e.l.0.m.n.. . . . . . . b.k.0.0.0.j.j.j.o.. . . . . . b.a.0.e.e.a.j.j.0.. . ",
". . . . . . . . b.l.b.. G 2.. . k.0.. . . . . . e.l.. . ..... . . . . . b.0.. . . . . l.j.g.. . . . . h.k.b.. . . . p.j.j.p.. ",
". . . . . . . b.k.b.. . G 2.. . e.. . . . . . b.j.e.. . ..... . . . . . l.e.. . . . 0.h.j.q.. . . . a.k.b.. . . . . . 0.j.0.. ",
". . . . . . . k.h.. . . G 2.. . . . . . . . . 0.j.. . . ..... . . . . p.j.h.. . . h.h.e.j.r.. . . p.j.h.. . . . . . . e.j.0.. ",
". . . . . . a.k.. . . . G 2.. . . . . . . . . j.l.. . . ..... . . . . e.j.0.. . e.0.. h.j.s.. . . l.k.. . . . . . . . e.j.0.. ",
". . . . . b.j.a.. . . . G 2.. . . . . . . . p.j.a.. . . ..... . . . . b.a.b.. b.l.. . 0.j.H . . p.j.0.. . . . . . . . e.j.a.. ",
". . . . . h.j.e.. . . p.t.u.0.h.e.b.. . . . h.j.e.. . . ..... . . . . . . . . l.b.. . l.k.H v.. h.j.e.. . . . . . . . a.j.e.. ",
". . . . . 0.j.. . . b.e.r.e.k.j.p.. . . . . 0.j.. . . . ..... . . . . . . . 0.k.0.0.0.j.0.G 2.. 0.j.e.. . . . . . . . l.k.. . ",
". . . . . j.j.. . . . . H . j.0.. . . . . . j.l.. . . . ..... b.. . . . . 0.a.e.e.e.h.j.0.G 2.. 0.j.e.. . . . . . . p.j.h.. . ",
". w.W ....j.j.n.......Z H x.j.y...........z.j.y.........G G ..y.........m.m.........x.j.y.H Z ..m.j.m...............A.m.W w.. ",
". w.W ....B.j.y.......>.).m.j.z...........C.m...........I I z.y.....n.m.m...........x.j.x.H Z ..x.j.j.n...........m.m.n.W w.. ",
". . . . . a.j.j.h.. . e.0.j.j.. . . . . p.0.. . . . . b.e.h.l.b.j.j.j.e.. . . . . . 0.j.a.D.E.. . k.j.k.p.. . p.l.h.. . . . . ",
". . . . . . a.j.j.k.0.p.. j.0.. . . a.0.0.0.0.0.0.k.j.j.j.k.e.b.0.h.b.. . . . . . . 0.j.0.a.e.. . b.a.j.j.j.0.h.b.. . . . . . ",
". . . . . . . . . . . . e.j.h.. . . . . . . . . . . . . . . . . . . . . . . . . . . . . . . . . . . . . . . . . . . . . . . . ",
". . . . . . . . . . . . a.k.. . . . . . . . . . . . . . . . . . . . . . . . . . . . . . . . . . . . . . . . . . . . . . . . . ",
". . . . . . . . . . . . k.e.. . . . . . . . . . . . . . . . . . . . . . . . . . . . . . . . . . . . . . . . . . . . . . . . . ",
". . . . . . . . . . . h.e.. . . . . . . . . . . . . . . . . . . . . . . . . . . . . . . . . . . . . . . . . . . . . . . . . . ",
". . . . . . p.k.0.0.0.e.. . . . . . . . . . . . . . . . . . . . . . . . . . . . . . . . . . . . . . . . . . . . . . . . . . . ",
". . . . . . a.0.0.h.b.. . . . . . . . . . . . . . . . . . . . . . . . . . . . . . . . . . . . . . . . . . . . . . . . . . . . ",
". . . . . . . . . . . . . . . . . . . . . . . . . . . . . . . . . . . . . . . . . . . . . . . . . . . . . . . . . . . . . . . ",
". . . . . . . . . . . . . . . . . . . . . . . . . . . . . . . . . . . . . . . . . . . . . . . . . . . . . . . . . . . . . . . "};
