/* XPM */
static char * inAtmos_xpm[] = {
"63 63 256 2",
"  	c None",
". 	c #000000",
"+ 	c #010101",
"@ 	c #020202",
"# 	c #030303",
"$ 	c #060606",
"% 	c #080808",
"& 	c #0B0B0B",
"* 	c #0D0D0D",
"= 	c #101010",
"- 	c #121212",
"; 	c #141414",
"> 	c #161616",
", 	c #171717",
"' 	c #181818",
") 	c #191919",
"! 	c #151515",
"~ 	c #131313",
"{ 	c #111111",
"] 	c #0F0F0F",
"^ 	c #0C0C0C",
"/ 	c #090909",
"( 	c #070707",
"_ 	c #050505",
": 	c #1D1D1D",
"< 	c #252525",
"[ 	c #2D2D2D",
"} 	c #323232",
"| 	c #373737",
"1 	c #3C3C3C",
"2 	c #3F3F3F",
"3 	c #424242",
"4 	c #444444",
"5 	c #404040",
"6 	c #3D3D3D",
"7 	c #393939",
"8 	c #353535",
"9 	c #2F2F2F",
"0 	c #282828",
"a 	c #202020",
"b 	c #040404",
"c 	c #242424",
"d 	c #303030",
"e 	c #494949",
"f 	c #525252",
"g 	c #5A5A5A",
"h 	c #636363",
"i 	c #676767",
"j 	c #6B6B6B",
"k 	c #6F6F6F",
"l 	c #6C6C6C",
"m 	c #646464",
"n 	c #5E5E5E",
"o 	c #555555",
"p 	c #4A4A4A",
"q 	c #3E3E3E",
"r 	c #222222",
"s 	c #1F1F1F",
"t 	c #2B2B2B",
"u 	c #474747",
"v 	c #717171",
"w 	c #7B7B7B",
"x 	c #848484",
"y 	c #8C8C8C",
"z 	c #8F8F8F",
"A 	c #939393",
"B 	c #909090",
"C 	c #8E8E8E",
"D 	c #8A8A8A",
"E 	c #858585",
"F 	c #7A7A7A",
"G 	c #6E6E6E",
"H 	c #4D4D4D",
"I 	c #313131",
"J 	c #262626",
"K 	c #1C1C1C",
"L 	c #0A0A0A",
"M 	c #2E2E2E",
"N 	c #4F4F4F",
"O 	c #616161",
"P 	c #737373",
"Q 	c #828282",
"R 	c #9E9E9E",
"S 	c #A8A8A8",
"T 	c #B1B1B1",
"U 	c #BABABA",
"V 	c #BDBDBD",
"W 	c #B9B9B9",
"X 	c #B5B5B5",
"Y 	c #B6B6B6",
"Z 	c #BFBFBF",
"` 	c #BEBEBE",
" .	c #BBBBBB",
"..	c #B2B2B2",
"+.	c #A5A5A5",
"@.	c #999999",
"#.	c #8B8B8B",
"$.	c #292929",
"%.	c #0E0E0E",
"&.	c #1B1B1B",
"*.	c #595959",
"=.	c #6D6D6D",
"-.	c #9D9D9D",
";.	c #AFAFAF",
">.	c #CBCBCB",
",.	c #D5D5D5",
"'.	c #DEDEDE",
").	c #E5E5E5",
"!.	c #E2E2E2",
"~.	c #D7D7D7",
"{.	c #CCCCCC",
"].	c #CDCDCD",
"^.	c #F1F1F1",
"/.	c #EFEFEF",
"(.	c #EAEAEA",
"_.	c #E0E0E0",
":.	c #CECECE",
"<.	c #C5C5C5",
"[.	c #B0B0B0",
"}.	c #A3A3A3",
"|.	c #787878",
"1.	c #2C2C2C",
"2.	c #777777",
"3.	c #868686",
"4.	c #B7B7B7",
"5.	c #CACACA",
"6.	c #DFDFDF",
"7.	c #E4E4E4",
"8.	c #D0D0D0",
"9.	c #B8B8B8",
"0.	c #E9E9E9",
"a.	c #FAFAFA",
"b.	c #F8F8F8",
"c.	c #F5F5F5",
"d.	c #EEEEEE",
"e.	c #DBDBDB",
"f.	c #C9C9C9",
"g.	c #C8C8C8",
"h.	c #C3C3C3",
"i.	c #666666",
"j.	c #454545",
"k.	c #464646",
"l.	c #5D5D5D",
"m.	c #727272",
"n.	c #808080",
"o.	c #919191",
"p.	c #D1D1D1",
"q.	c #E8E8E8",
"r.	c #EBEBEB",
"s.	c #A7A7A7",
"t.	c #989898",
"u.	c #9B9B9B",
"v.	c #FBFBFB",
"w.	c #FCFCFC",
"x.	c #D3D3D3",
"y.	c #CFCFCF",
"z.	c #C2C2C2",
"A.	c #B3B3B3",
"B.	c #5F5F5F",
"C.	c #484848",
"D.	c #383838",
"E.	c #232323",
"F.	c #1A1A1A",
"G.	c #606060",
"H.	c #7C7C7C",
"I.	c #929292",
"J.	c #9C9C9C",
"K.	c #A9A9A9",
"L.	c #EDEDED",
"M.	c #DADADA",
"N.	c #C0C0C0",
"O.	c #FEFEFE",
"P.	c #FFFFFF",
"Q.	c #F6F6F6",
"R.	c #E1E1E1",
"S.	c #E6E6E6",
"T.	c #E3E3E3",
"U.	c #D6D6D6",
"V.	c #ABABAB",
"W.	c #7E7E7E",
"X.	c #515151",
"Y.	c #212121",
"Z.	c #343434",
"`.	c #4E4E4E",
" +	c #686868",
".+	c #C1C1C1",
"++	c #C6C6C6",
"@+	c #BCBCBC",
"#+	c #D2D2D2",
"$+	c #DCDCDC",
"%+	c #ACACAC",
"&+	c #D8D8D8",
"*+	c #F9F9F9",
"=+	c #FDFDFD",
"-+	c #D9D9D9",
";+	c #949494",
">+	c #5C5C5C",
",+	c #707070",
"'+	c #AAAAAA",
")+	c #D4D4D4",
"!+	c #ECECEC",
"~+	c #F7F7F7",
"{+	c #F3F3F3",
"]+	c #C7C7C7",
"^+	c #626262",
"/+	c #6A6A6A",
"(+	c #B4B4B4",
"_+	c #F2F2F2",
":+	c #A1A1A1",
"<+	c #767676",
"[+	c #8D8D8D",
"}+	c #F0F0F0",
"|+	c #A6A6A6",
"1+	c #545454",
"2+	c #2A2A2A",
"3+	c #878787",
"4+	c #757575",
"5+	c #A0A0A0",
"6+	c #959595",
"7+	c #979797",
"8+	c #505050",
"9+	c #969696",
"0+	c #A4A4A4",
"a+	c #898989",
"b+	c #9F9F9F",
"c+	c #AEAEAE",
"d+	c #585858",
"e+	c #ADADAD",
"f+	c #565656",
"g+	c #414141",
"h+	c #656565",
"i+	c #F4F4F4",
"j+	c #535353",
"k+	c #C4C4C4",
"l+	c #DDDDDD",
"m+	c #3A3A3A",
"n+	c #7F7F7F",
"o+	c #A2A2A2",
"p+	c #333333",
"q+	c #3B3B3B",
"r+	c #4C4C4C",
"s+	c #434343",
"t+	c #888888",
"u+	c #E7E7E7",
"v+	c #747474",
"w+	c #797979",
"x+	c #575757",
"y+	c #9A9A9A",
"z+	c #272727",
"A+	c #5B5B5B",
"B+	c #1E1E1E",
"C+	c #363636",
"D+	c #838383",
"E+	c #4B4B4B",
"F+	c #696969",
"G+	c #818181",
". . . . . . . . . . . . . . . . . . . . . . . . . . . . . . . . . . . . . . . . . . . . . . . . . . . . . . . . . . . . . . . ",
". . . . . . . . . . . . . . . . . . . . . . . . . . . . . . . . . . . . . . . . . . . . . . . . . . . . . . . . . . . . . . . ",
". . . . . . . . . . . . . . . . . + @ # $ % & * = - ; > , ' ) ) ) ) ' , ! ~ { ] ^ / ( _ @ + + . . . . . . . . . . . . . . . . ",
". . . . . . . . . . . . . . . . + # _ / ] > : < [ } | 1 2 3 4 4 4 3 5 6 7 8 9 0 a ' { ^ _ b @ . . . . . . . . . . . . . . . . ",
". . . . . . . . . . . . . . . . + b % ] ) c d 1 e f g h i j k k k l i m n o p q 9 r ) { % _ @ . . . . . . . . . . . . . . . . ",
". . . . . . . . . . . . . + b ( * > s t 7 u o h v w x y z A A z z B C D E F G n H 6 I J K ~ * % $ # . . . . . . . . . . . . . ",
". . . . . . . . . . . . . @ L { : M q N O P Q B R S T U V W X T Y Z `  ...+.@.#.F j g p 7 $.: ~ %.$ . . . . . . . . . . . . . ",
". . . . . . . . . . . . . # ] &.[ 4 *.=.x -.;.V >.,.'.).!.~.{.].!.^./.(._.:.<.U [.}.B |.n 3 1.&.! L . . . . . . . . . . . . . ",
". . . . . . . . + + # % * > $.1 N m 2.3.@.4.5.,.6.7.).6.8.Z 9.<.0.a.b.c.d.e.:.f.g.h.X }.#.i.j.} 1.a = L _ + . . . . . . . . . ",
". . . . . . . . + # $ { K 1.k.l.m.n.o.-...p.!.q.r.).p. .s.t.u.U r.v.w.a.b.0.x.5.y.,.:.z.A.D B.C.3 D.E.! % @ + . . . . . . . . ",
". . . . . . . . @ b % F.t 5 G.H.I.J.K.4.y.0.^.L.).M.f.A.@.D A N.^.O.P.P.P.Q.R.p.~.).S.T.U.V.W.i G.X.8 Y.^ @ + . . . . . . . . ",
". . . . . . . . % = &.Z.`. +x J.V.T Y .+8.,.++@+.+#+$+U.z.%+[.&+*+P.P.=+v.c.).-+e.0.^.d.6.U -.;+y |.>+3 E.^ _ + . . . . . . . ",
". . . . . . . . %.: M N ,+z '+z.].)+&+M.8.X @.B }.++!+w.a.d.r.a.P.P.P.~+d.(.q.r.{+w.=+~+q.:.h.]+9.-.Q ^+1 &.^ # . . . . . . . ",
". . . . . + + @ > t 3 /+o.(+{.!._+b.=+*+&+:+F <+[+;._.a.P.P.P.P.P.P.P.v.}+S.(.v.P.P.P.w._+).S.L.~.` |+n.1+2+~ $ + + . . . . . ",
". . . . . b / %.$.k.h 3+K.++p.6.d.b.O.P.(.V.2.G x }.h.).*+P.P.=+c.~+O.P.w./._+=+P.P.P.O.*+}+0.q.'.8.N.J.4+C.E.* $ _ @ . . . . ",
". . . . . % - &.1 B.Q 5+X Z U <.U.d.v.P.=+x.6+w I.T ;.%+x.~+P.^.5.y.}+O.P.a.c.=+P.P.P.P.=+{+_.6.T.!.-+W 7+G 2 : ] & # . . . . ",
". . . + + %.: t 8+<+9+s.V.0+u.:+..++_.}+a.~+5.s.9.f.:+m.a+~.a.).[.b+<.L.O.w.0._+=+P.P.P.w._+S.S./.^.r.:...o.h D.a ! # . . . . ",
". . + # b ' 9 j.j #.|+c+c+s.R +.A. .@+f.R._+{+S.0.6.u.d+O [././.V 3+W.%+q.d.8.8.^.w.w.O.v._+L.{+~+/.R.]..+e+Q f+D.< b . . . . ",
". . @ _ % r g+B.3.+. .Z Z @+ .g.,.f.|+#.B N.d.=+P.0.:+=.2.Y L.L...h+3 i c+p.V (+U.}+/.i+~+c.c.v.w.L.-+:.x.g.R k e d _ . . . . ",
". . b % * [ j+2.R @+].k+Z @+z.'.c.!+%+^+u P h.}+v.!+W 5+4.R.L.]+x `.C.k K.].5.Z )+0.T.$+7.(.^.Q.*+^.T.!.q.l+(+3.g D.^ . . . . ",
". . $ * , m+^+a+'+ .W S @.6+%+M.*+O..+g r 6 o.U.d.(.<. .e.~+(.K.v ,+7+h.!.^.d.q.(.(.l+].k+]+x._.r././.{+{+).h.-.k 4 K . . . . ",
". . % ~ a j.l y R c+;.t.W.<+@.&+a.{+..f ) 9 2.N.'.e...t.(+!.).9.J.X r.=+P.P.P.w.r.,.f.]+W e+W {.l+q.{+b.~+d.8.T 3+f+[ . . . . ",
". . L F.$.u B.|.o.Y :. .-.x @.:.6.(+k } &.q n+W y.U n.n P A._.7.e.e.(.a.P.P.P.~+y.V.e+++k+%+c+k+U.S./.i+{+/.&+@+t.i.m+@ . . . ",
". . %.Y.9 5 N /+#..+Q.a.L.U.f.V 6+l.2+- s d+o+#+{.B H p+g K.r.w.Q.:.W M.v.P.P.*+p.%+A.e.T.z.A.k+e.!+i+{+_+d.l+g.s.2.p _ . . . ",
". . ; $.p+q+u h+3.` c.P.P.P.^.N.n+e 2+F.1.m.p.a.!.A r+s+W.8.*+=+b.{.:+ ._+P.P.P.*+S.(.v.P.S.:.p.).*+=+~+_+}+7.,.4.t+>+%.. . . ",
". . > p+q 2 C.h+3.T !.a.P.P.=+~.0+a+w n o C 7.O.O.y.a+H.9.^.*+~+b.(.]+:.}+O.P.P.P.P.O.=+P.P.L.!.^.=+P.v.c._+(.'.h.6+/+a . . . ",
". . ) 1 X.o o P 9+V.(+8.i+P.*+#+4.8.'.Z @...d.P.P.*+].X &+_+/.}+Q.v.c.7.u+_+c.~+b.~+d.r.c.w.b.q.^.=+P.v.~+b.}+u+].5+v+p++ . . ",
". . F.g+h+w+F t.X %+E x h.Q.(.4.R Z d.v._.g.$+Q.O.P.d.8.)+d.b.*+w.O.P.!. .;.[.9.<.f. .U x.q.T.x.7.a.O.*+Q.a.~+d.U.'+W.p . . . ",
". . ' 5 l ;+[.)+~.e+i j+y x.7. .B E K.!.~+z.5+` L.v.}+8. .].{+P.P.O.v.` F N 1 6 o w 7+}.[.X S |+h.u+^.d._+a.b.{+$+T x f++ . . ",
". . - 1.d+;+f.c.u+e+i o W.X g.s./+s+x+y+>...2.w+[.e.R.:...c+M.a.P.=+'.x q &./ b * j.z 9.;.B W.#.A.l+{+Q.Q.b.b.b.7.4.D B.+ . . ",
". . ] ' 8 F ]+b.u+Y 3+Q @.;.s.<+g+t C.t+@+N.z Q K.>.]+@+T e+Z r.w.^.0+`.$.t c ~ ( [ z ,.++I.H.B ` q.a.O.a.{+i+b.q.@+z h @ . . ",
". . ] %.) d+4.*+d.{.c+X ++z.7+>+s+x+A :.0.!+e.{.x.g.o+B J.[.z.M.d.x.D N `.v P q+~ z+a+$+~.K.9+c+e.*+O.P.v.r.).r.7. .C h # . . ",
". . %.& = j.S *+i+p.V...U.e.c+H.|.5+$+a.P.P.=+}+,.b+=. +a+e+]+U.6.y.'+y @.V e+A+B+z+4+Y 9.s.}.@+r.=+P.P.a.0.-+&+,.(+#.G.@ . . ",
". . / / ! e :+d.'.0+v v o+,.'.k+e+V.<.^.O.P.^.Z x o 7 j+t+}.W ++5.g.N.Z 8.$+'+f Y.I =.R t.D o. ./.O.P.P.v.L.&+].<.K.E n # . . ",
". . # $ B+*.+.8.0+O C+4 E #+a.}+(+D+o.,.v.P.U.3+r+2+s f y+'+9.W (+ .U V :.]+Q s+I f #.(+%+7+u.N.}+P.P.P.=+{+l+:.Z }.Q >+L . . ",
". . @ % z+G V $+J.f 8 A+%+!+P.^.;.k v+N.*+O.-+y H 0 E.^+N.f.g.8.N.Y V g.>.e+v 8+x+W.(+U.M.f.V >.u+v.P.b._+!+!.&+].%+D+A+F.. . ",
". . / - d 4+@+(.:.[+G t.6.P.O.L.k+7+y+~.w.O.^.(+4+C.q P U.d.R.S.7.<.Z &+f.o+v+m P A W h.Z ` ++U.u+*+P.*+d.)._.S.,.V.n+f+} . . ",
". . - E.q+<+X !.S.y.A.g.^.P.v.q.U.p.-+u+b.P.O.&+R ,+A+n+].}+_.-+!.&+:.u+M.5+<+k n+I.b+}.5+[.8.0._+Q.=+O.b.u+!.).y.o+4+`.m+. . ",
". . > d j.v K.&+).q.&+x.L.O.*+!+7.}+d.#+h.++:..+I.h `.=.V.(+y 3.c+U._./._+.+3.P D }.6+3.6+Y '.L.,.&+{+=+O.^.).'.<.t.l u : . . ",
". . ~ M s+>+x Z '.q.M.N.>.L.w.i+^.Q.$+y+h+r+C.1+f+C.q d+w j E+8+x 4.5.'.i+d.Y A K.Z y+l w 4.!.6.;.|+#+c.=+b.e.#+W [+G.q b . . ",
". . = J D.p f+D+4.M.-+W V.].Q.v._+).'+d+r ( . % t u X.m F+1+s+o D+:+J.'+_.*+0.#+M.-+J.d+n }._.R.(+z 6+h._+/.N...s.n+f } @ . . ",
". . ^ : M u j+2.'+#+M.Z e+Y l+~+!+ .i t ) ; & b &.x+G+;+D+j k z A.e+#.F 7+x._+~+a.S.J.B.i.|+T.(.W v f |.@+8.|+C D l g+J + . . ",
". . / > E.k.i D V.U V @+<.p.!./.&+u.*.2 j+G.3 , F.B.+.>.` c+N.'.r.$+@.G.1+E ]./.w.r.[.[+b+p.(.)+o.`.q+B.b+@+-.W.P g } > + . . ",
". . $ ] ' q+^+3.6+t+t+c+T.=+O.*+0.++b+t.|+@. +2+&.*.V.&+0.i+v.O.O.*+@+A+2+E++.q.w.{+g.@+&+i+L.[.k A+v+5+++y.V.3+l E+< & . . . ",
". . # % * 1.E+G.^+`.d+-.).O.v.*+*+O.O.b.l+V.h+0 r ^+[.8.p.~.!+w.P.O.Z x+&.} C u+O.Q.5.A.:.i+0.c+t+-.,.).S.~.;.3+B.m+' @ . . . ",
". . @ _ ( B+1.9 [ Y.1 B 6.v.!+$+r.w.P.a.l+:+x+M q n.++~..+V. .!._+x.D q &.7 B R.~+M.J.<+D h.R.U.]+,.d.0.e.<.J.,+s+c %.+ . . . ",
". . + @ b ; K ' ! - p+D e.~+i+'.8.T.b.*+R.'+v n v++.U.6.]+5+C +.s.|.6 F.B+f+s.6.-+5+>+1 >++.u+Q./.#+h.g.k+'+G+f+1.> / . . . . ",
". . . . . ^ ; ; ' F.D.3.)+{+~+^.x..+M.}+i+_.9.S [.` g. .K.J.J.9+<+s+s = 0 v+{.i+~.D 4 | l N.c.P.~+z.t.-.S C i 2 a { b . . . . ",
". . . . . % %.{ K r D.P W l+).r.$+g.-+_+b.v.*+/.6.]+c+t.9+K..+Y t+i.j+2 j.#.!.v.c.W ,+h+0+(.v.v./.].u.[+#.,+`.[ ! * # . . . . ",
". . . . . b % L ! K [ g z o+o+9.)+6.d.v.=+P.O.O.c.U.;.7+b+Z '.e.N. .W @.W.'+d.=+P.L.Y 0+p.Q.a.~+).8.c+E l 8+| K & $ + . . . . ",
". . . . . . . . & = : j.=.v =.I.h.&+q.*+O.O.O.P.O.d.:.4.@+x.L.d.0.r.L.).g.f.}+=+P.=+).f.M.{+~+_+-+N.o+v k.$.F./ . . . . . . . ",
". . . . . . . . / * ' m+g G.i.D ;.Y U U.i+=+O.P.P.O.^.e.x.l+q.u+!+_+Q.*+i+M.#+_.*+P.d.5.@+>.&+#+Y y+W.r+E.= % # . . . . . . . ",
". . . . . . . . $ & ~ M C.A+P 9+c+K.0+U R.*+=+O.w.b.}+_.p.y.y.8.,.S.~+a.v._.e+s.5.!+u+]+|+J...[.A v+f z+^ # + . . . . . . . . ",
". . . . . . . . @ b % ) $.q n W.u.'+[.U ].!.!+{+_+(.'.y.N. .` V  .f.L.b.a./.(+y+W '.'..+:+3.3.t+,+8+J * # + . . . . . . . . . ",
". . . . . . . . + # _ = F.$.g+g v+C |+T X z.y.$+T.'.)+>.h.Z .+V Y V R.i+c./.~.` <.g.;.7+a+F j G.`.I ~ ( # + + . . . . . . . . ",
". . . . . . . . + + @ $ L ~ < C+r+i.n.6+}...z.y.-+M.M.l+$+$+&+5. .` '.}+d.S.l+#+k+5+m.h G l d+5 9 &./ _ # + + . . . . . . . . ",
". . . . . . . . . . . . . # ] F.t 3 g ,+x t.S Y h.{.U.'.!.u+).#+ .c+N.$+$+)+g.T B ^+D.7 8+H D.a ! L . . . . . . . . . . . . . ",
". . . . . . . . . . . . . @ % = &.2+m+E+>+=.w a+7+o+V.(+W ` .+4.u.D+E }.c+s.y h+k.z+; a Z.} c - ^ $ . . . . . . . . . . . . . ",
". . . . . . . . . . . . . + # $ & - F.< p+g+N l.j 4+W.t+[+o.9+B w+^+B.4+G+F B.7 B+* % { F., ] ( b @ . . . . . . . . . . . . . ",
". . . . . . . . . . . . . . . . + b ( %.' r [ 7 j.H o n ^+i.F+h o e E+d+*.f 4 $.! / $ / % $ # . . . . . . . . . . . . . . . . ",
". . . . . . . . . . . . . . . . + # b % %.; &.r $.M } | 7 1 6 7 p+I 8 | 8 d t s - L $ $ _ b @ . . . . . . . . . . . . . . . . ",
". . . . . . . . . . . . . . . . . + + @ b $ % L ^ %.] { { - ~ { { = - { = %.* L $ # @ @ @ + + . . . . . . . . . . . . . . . . ",
". . . . . . . . . . . . . . . . . . . . . . . . . . . . . . . . . . . . . . . . . . . . . . . . . . . . . . . . . . . . . . . "};
