/* XPM */
static char * joinOutputs_xpm[] = {
"63 63 4 1",
" 	c None",
".	c #FFFFFF",
"+	c #000000",
"@	c #808080",
"...............................................................",
"...............................................................",
".........+++++++++++...........................+++++++++++.....",
"........++........+...........................++........+......",
".......++........+...........................++........+.......",
"......++........++..........................++........++.......",
".....++........++..........................++........++........",
".....+++++++++++...........................+++++++++++.........",
"...............................................................",
"...............................................................",
"...................+++++++++++......+++++++++++................",
"..................++........+......++........+.................",
".................++........+......++........+..................",
"................++........++.....++........++..................",
"...............++........++.....++........++...................",
"...............+++++++++++......+++++++++++....................",
"...............................................................",
"...............................................................",
"...............................................................",
"...............................................................",
"...............................................................",
"..........................@....................................",
"..........................+....................................",
"..........................+....................................",
"..........................+....................................",
"..........................+....................................",
"..........................+....................................",
"..........................+....................................",
"..........................+....................................",
"........................+.+.+..................................",
"........................+.+.+..................................",
".........................++++..................................",
".........................+++...................................",
"..........................+....................................",
"...............................................................",
"...............................................................",
"...............................................................",
"...............................................................",
"...............................................................",
"...............................................................",
"...............................................................",
"...............................................................",
"...............................................................",
"..................+++++++++++++++++++++++++++..................",
"..................+........................+...................",
".................+..........+.............+....................",
"................++.......................++....................",
"...............++..........+............++.....................",
"..............++++.+.+.+.+.+.+.+.+.+.+.++......................",
"..............+..........++...........++.......................",
".............+........................+........................",
"............+...........+............+.........................",
"...........++.......................+..........................",
"..........++..........+............++..........................",
"..........++++++++++++++++++++++++++...........................",
"...............................................................",
"...............................................................",
"...............................................................",
"...............................................................",
"...............................................................",
"...............................................................",
"...............................................................",
"..............................................................."};
