/* XPM */
static char * loadOutput_xpm[] = {
"63 63 386 2",
"  	c None",
". 	c #FFFFFF",
"+ 	c #E7E7E7",
"@ 	c #FCFCFC",
"# 	c #EAEAEA",
"$ 	c #F4F4F4",
"% 	c #FBFBFB",
"& 	c #D8D8D8",
"* 	c #656565",
"= 	c #CACACA",
"- 	c #FEFEFE",
"; 	c #E1E1E1",
"> 	c #282828",
", 	c #064F1D",
"' 	c #212923",
") 	c #E4E4E4",
"! 	c #646464",
"~ 	c #27582C",
"{ 	c #1A953D",
"] 	c #076024",
"^ 	c #4C4C4C",
"/ 	c #F5F5F5",
"( 	c #FDFDFD",
"_ 	c #9B9B9B",
": 	c #1F3C21",
"< 	c #5EB861",
"[ 	c #52B25B",
"} 	c #109038",
"| 	c #05461A",
"1 	c #686868",
"2 	c #F6F6F6",
"3 	c #D1D1D1",
"4 	c #182819",
"5 	c #5AAE5D",
"6 	c #65BC66",
"7 	c #69BE69",
"8 	c #4EB05B",
"9 	c #0B8D35",
"0 	c #032C10",
"a 	c #9C9C9C",
"b 	c #FAFAFA",
"c 	c #F9F9F9",
"d 	c #161C16",
"e 	c #509852",
"f 	c #66BD67",
"g 	c #6BBF6B",
"h 	c #70C16E",
"i 	c #74C371",
"j 	c #3AA550",
"k 	c #0A8431",
"l 	c #011106",
"m 	c #D0D0D0",
"n 	c #E0E0E0",
"o 	c #EDEDED",
"p 	c #448146",
"q 	c #67BD68",
"r 	c #6CC06C",
"s 	c #72C270",
"t 	c #77C573",
"u 	c #7BC777",
"v 	c #7FC97A",
"w 	c #299C47",
"x 	c #08722B",
"y 	c #2C332E",
"z 	c #EFEFEF",
"A 	c #F0F0F0",
"B 	c #696969",
"C 	c #2C522C",
"D 	c #68BD69",
"E 	c #6DC06D",
"F 	c #73C371",
"G 	c #78C674",
"H 	c #7DC878",
"I 	c #82CA7C",
"J 	c #86CC7F",
"K 	c #82CA7D",
"L 	c #1C953E",
"M 	c #065821",
"N 	c #505050",
"O 	c #BFBFBF",
"P 	c #DBDBDB",
"Q 	c #ECECEC",
"R 	c #B2B2B2",
"S 	c #747474",
"T 	c #192F19",
"U 	c #6DC06C",
"V 	c #79C675",
"W 	c #7EC879",
"X 	c #84CB7E",
"Y 	c #89CD81",
"Z 	c #8DCF85",
"` 	c #91D188",
" .	c #7BC57B",
"..	c #14913A",
"+.	c #053D17",
"@.	c #2F2F2F",
"#.	c #A6A6A6",
"$.	c #0C170C",
"%.	c #60B161",
"&.	c #6CBF6C",
"*.	c #72C370",
"=.	c #7EC87A",
"-.	c #85CB7E",
";.	c #8ACE82",
">.	c #8FD086",
",.	c #94D28A",
"'.	c #98D48E",
").	c #9CD692",
"!.	c #68BC71",
"~.	c #0C8D34",
"{.	c #021A09",
"].	c #B0B0B0",
"^.	c #202020",
"/.	c #529853",
"(.	c #6ABE6A",
"_.	c #71C26F",
":.	c #78C574",
"<.	c #8BCE82",
"[.	c #90D187",
"}.	c #95D38C",
"|.	c #9AD590",
"1.	c #9FD794",
"2.	c #A2D998",
"3.	c #A5DA9C",
"4.	c #47AB5D",
"5.	c #0B8431",
"6.	c #101812",
"7.	c #3D743E",
"8.	c #6EC16D",
"9.	c #76C473",
"0.	c #7CC778",
"a.	c #83CB7D",
"b.	c #90D087",
"c.	c #96D38C",
"d.	c #9BD591",
"e.	c #A0D896",
"f.	c #A4DA9B",
"g.	c #A9DC9F",
"h.	c #ADDEA3",
"i.	c #B0DFA6",
"j.	c #2C9D4A",
"k.	c #09722A",
"l.	c #303030",
"m.	c #808080",
"n.	c #234525",
"o.	c #64BC66",
"p.	c #79C676",
"q.	c #81C97B",
"r.	c #88CD80",
"s.	c #95D28B",
"t.	c #A1D896",
"u.	c #ABDCA1",
"v.	c #B0DFA5",
"w.	c #B4E1A9",
"x.	c #B7E2AD",
"y.	c #AFDEA8",
"z.	c #17933D",
"A.	c #112212",
"B.	c #60BA63",
"C.	c #76C573",
"D.	c #7DC879",
"E.	c #85CC7E",
"F.	c #8CCF84",
"G.	c #93D28A",
"H.	c #ABDDA1",
"I.	c #B1DFA7",
"J.	c #B6E2AB",
"K.	c #BAE3B0",
"L.	c #BFE5B4",
"M.	c #C3E7B8",
"N.	c #A3D7A1",
"O.	c #043513",
"P.	c #909090",
"Q.	c #141B15",
"R.	c #50A054",
"S.	c #63BB65",
"T.	c #6ABF6A",
"U.	c #81CA7B",
"V.	c #97D38D",
"W.	c #9ED794",
"X.	c #A4D99A",
"Y.	c #AADCA0",
"Z.	c #B1DFA6",
"`.	c #B7E2AC",
" +	c #BCE4B2",
".+	c #C2E6B7",
"++	c #C7E8BC",
"@+	c #CAEABF",
"#+	c #CCEBC2",
"$+	c #85C88F",
"%+	c #C0C0C0",
"&+	c #418745",
"*+	c #5DB861",
"=+	c #74C472",
"-+	c #8CCF83",
";+	c #A1D897",
">+	c #A7DB9E",
",+	c #AFDEA5",
"'+	c #B6E1AB",
")+	c #BCE4B1",
"!+	c #C8E9BE",
"~+	c #CCEBC3",
"{+	c #D0ECC8",
"]+	c #D3EECB",
"^+	c #D5EECD",
"/+	c #58B26F",
"(+	c #0A7B2E",
"_+	c #606060",
":+	c #2E6432",
"<+	c #58B55D",
"[+	c #5FB962",
"}+	c #6FC16E",
"|+	c #87CC7F",
"1+	c #8ED085",
"2+	c #9DD693",
"3+	c #A4DA9A",
"4+	c #B3E0A8",
"5+	c #B9E3AF",
"6+	c #C1E6B6",
"7+	c #C8E9BD",
"8+	c #42A458",
"9+	c #42A559",
"0+	c #43A55A",
"a+	c #42A65B",
"b+	c #42A65C",
"c+	c #33A052",
"d+	c #040B05",
"e+	c #28592C",
"f+	c #2C5B2F",
"g+	c #305D31",
"h+	c #345E34",
"i+	c #386037",
"j+	c #3C623A",
"k+	c #40643D",
"l+	c #78B471",
"m+	c #90D188",
"n+	c #A0D795",
"o+	c #A6DB9C",
"p+	c #AEDEA4",
"q+	c #BDE5B3",
"r+	c #C5E8BA",
"s+	c #CBEAC2",
"t+	c #158D34",
"u+	c #0C5821",
"v+	c #09461A",
"w+	c #08461A",
"x+	c #06461A",
"y+	c #689B62",
"z+	c #92D189",
"A+	c #A8DB9E",
"B+	c #B8E2AE",
"C+	c #C0E6B6",
"D+	c #CEECC6",
"E+	c #168D34",
"F+	c #05230D",
"G+	c #A0A0A0",
"H+	c #030503",
"I+	c #699B63",
"J+	c #B2E0A7",
"K+	c #C9EABF",
"L+	c #D1EDC8",
"M+	c #168E35",
"N+	c #1D1D1D",
"O+	c #444444",
"P+	c #171717",
"Q+	c #9CD591",
"R+	c #A2D999",
"S+	c #CAEAC1",
"T+	c #D2EDC9",
"U+	c #178E35",
"V+	c #454545",
"W+	c #7C7C7C",
"X+	c #B3B3B3",
"Y+	c #DADADA",
"Z+	c #363636",
"`+	c #B2E0A8",
" @	c #BAE3AF",
".@	c #CAEAC0",
"+@	c #D1EDC9",
"@@	c #178D35",
"#@	c #353535",
"$@	c #404040",
"%@	c #0E0E0E",
"&@	c #464646",
"*@	c #7F7F7F",
"=@	c #B6B6B6",
"-@	c #DFDFDF",
";@	c #DEDEDE",
">@	c #DDDDDD",
",@	c #DCDCDC",
"'@	c #699B62",
")@	c #B8E3AE",
"!@	c #C9E9BF",
"~@	c #CFECC7",
"{@	c #188D35",
"]@	c #D9D9D9",
"^@	c #707070",
"/@	c #575757",
"(@	c #BABABA",
"_@	c #E3E3E3",
":@	c #E2E2E2",
"<@	c #689A61",
"[@	c #99D48F",
"}@	c #A7DB9D",
"|@	c #B6E2AC",
"1@	c #BEE5B4",
"2@	c #C6E8BC",
"3@	c #06230D",
"4@	c #101010",
"5@	c #E5E5E5",
"6@	c #373737",
"7@	c #669A60",
"8@	c #A5DA9B",
"9@	c #ACDDA2",
"0@	c #BBE4B0",
"a@	c #198D35",
"b@	c #000000",
"c@	c #65995F",
"d@	c #8DCF84",
"e@	c #94D28B",
"f@	c #BEE5B3",
"g@	c #C5E7BA",
"h@	c #198E35",
"i@	c #D2D2D2",
"j@	c #E6E6E6",
"k@	c #F2F2F2",
"l@	c #62985E",
"m@	c #9FD795",
"n@	c #D3D3D3",
"o@	c #D7D7D7",
"p@	c #E8E8E8",
"q@	c #60975C",
"r@	c #8ECF85",
"s@	c #D4D4D4",
"t@	c #616161",
"u@	c #0D0D0D",
"v@	c #D6D6D6",
"w@	c #D5D5D5",
"x@	c #EBEBEB",
"y@	c #BEBEBE",
"z@	c #CDCDCD",
"A@	c #7B7B7B",
"B@	c #E9E9E9",
"C@	c #EEEEEE",
"D@	c #CFCFCF",
"E@	c #F1F1F1",
"F@	c #DDE2DE",
"G@	c #B4CBBA",
"H@	c #7EAC89",
"I@	c #8EB697",
"J@	c #A4C0AB",
"K@	c #38814A",
"L@	c #106B26",
"M@	c #257F34",
"N@	c #207D31",
"O@	c #157729",
"P@	c #1E7633",
"Q@	c #409747",
"R@	c #4FA551",
"S@	c #3D9844",
"T@	c #248833",
"U@	c #278837",
"V@	c #157929",
"W@	c #177D2A",
"X@	c #19812B",
"Y@	c #288C38",
"Z@	c #5EA96A",
"`@	c #C1D6C4",
" #	c #B8D2BD",
".#	c #8CBB94",
"+#	c #B8CCBB",
"@#	c #CBCBCB",
"##	c #4B4B4B",
"$#	c #CCCCCC",
"%#	c #383838",
"&#	c #818181",
"*#	c #4D4D4D",
"=#	c #393939",
"-#	c #C6C6C6",
";#	c #5B5B5B",
">#	c #565656",
",#	c #939393",
"'#	c #5D5D5D",
")#	c #525252",
"!#	c #959595",
"~#	c #5E5E5E",
". . . . . . . . . . . . . . . . . . . . . . . . . . . . . . . . . . . . . . . . . . . . . . . . . . . . . . . . . . . . . . . ",
". . . . . . . . . . . . . . . . . . . . . . . . . . . . . . . . . . . . . . . . . . . . . . . . . . . . . . . . . . . . . . . ",
". . . . . . . . . . . . . . . . . . . . . . . . . . . . . . . . . . . . . . . . . . . . . . . . . . . . . . . . . . . . . . . ",
". . . . . . . . . . . . . . . . . . . . . . . . . . . . . . . . . . . . . . . . . . . . . . . . . . . . . . . . . . . . . . . ",
". . . . . . . . . . . . . . . . . . . . . . . . . . . . . . . . . . . . . . . . . . . . . . . . . . . . . . . . . . . . . . . ",
". . . . . . . . . . . . . . . . . . . . . . . . . . . . . . . . . . . . . . . . . . . . . . . . . . . . . . . . . . . . . . . ",
". . . . . . . . . . . . . . . . . . . . . . . . . . . . . . . . . . . . . . . . . . . . . . . . . . . . . . . . . . . . . . . ",
". . . . . . . . . . . . . + @ . . . . . . . . . . . . . . . @ # $ . . . . . . . . . . . . . . . . . . . . . . . . . . . . . . ",
". . . . . . . . . . . . . % . . . . . . . . . . . . . . . @ & * = % . . . . . . . . . . . . . . . . . . . . . . . . . . . . . ",
". . . . . . . . . . . . . - . . . . . . . . . . . . . . - ; > , ' ) . . . . . . . . . . . . . . . . . . . . . . . . . . . . . ",
". . . . . . . . . . . . . - . . . . . . . . . . . . . . $ ! ~ { ] ^ / . . . . . . . . . . . . . . . . . . . . . . . . . . . . ",
". . . . . . . . . . . . . . . . . . . . . . . . . . . ( _ : < [ } | 1 2 . . . . . . . . . . . . . . . . . . . . . . . . . . . ",
". . . . . . . . . . . . . - . . . . . . . . . . . . - 3 4 5 6 7 8 9 0 a b . . . . . . . . . . . . . . . . . . . . . . . . . . ",
". . . . . . . . . . . . . c . . . . . . . . . . . - ) d e f g h i j k l m ( . . . . . . . . . . . . . . . . . . . . . . . . . ",
". . . . . . . . . . . . . n . . . . . . . . . . - o > p q r s t u v w x y z ( . . . . . . . . . . . . . . . . . . . . . . . . ",
". . . . . . . . . . . . . . . . . . . . . . . - A B C D E F G H I J K L M N O P . . . . . . . . . . . . . . . . . . . . . . . ",
". . . . . . . . . . . . . . . . . . . . . @ Q R S T q U F V W X Y Z `  ...+.@.$ . . . . . . . . . . . . . . . . . . . . . . . ",
". . . . . . . . . . . . . . . . . . . . . . . #.$.%.&.*.V =.-.;.>.,.'.).!.~.{.].. . . . . . . . . . . . . . . . . . . . . . . ",
". . . . . . . . . . . . . . . . . . . . . . A ^./.(._.:.W -.<.[.}.|.1.2.3.4.5.6.m . . . . . . . . . . . . . . . . . . . . . . ",
". . . . . . . . . . . . . . . . . . . . . . N 7.q 8.9.0.a.;.b.c.d.e.f.g.h.i.j.k.l.A . . . . . . . . . . . . . . . . . . . . . ",
". . . . . . . . . . . . . . . . . . . . . m.n.o.g *.p.q.r.>.s.d.t.3.u.v.w.x.y.z., N . . . . . . . . . . . . . . . . . . . . . ",
". . . . . . . . . . . . . . . . . . . . ].A.B.q 8.C.D.E.F.G.|.e.3.H.I.J.K.L.M.N.~.O.P.. . . . . . . . . . . . . . . . . . . . ",
". . . . . . . . . . . . . . . . . . . n Q.R.S.T.s V U.Y b.V.W.X.Y.Z.`. +.+++@+#+$+5.{.%+. . . . . . . . . . . . . . . . . . . ",
". . . . . . . . . . . . . . . . . . A l.&+*+6 r =+0.X -+G.|.;+>+,+'+)+M.!+~+{+]+^+/+(+6.n . . . . . . . . . . . . . . . . . . ",
". . . . . . . . . . . . . . . . . . _+:+<+[+q }+t W |+1+c.2+3+H.4+5+6+7+8+9+0+a+b+c+~.] l.. . . . . . . . . . . . . . . . . . ",
". . . . . . . . . . . . . . . . . . d+e+f+g+h+i+j+k+l+m+'.n+o+p+'+q+r+s+t+u+v+w+w+x+x+| l %+. . . . . . . . . . . . . . . . . ",
". . . . . . . . . . . . . . . . . . %+m.m.m.m.m.m.^.y+z+|.;+A+i.B+C+!+D+E+F+m.m.m.m.m.m.G+. . . . . . . . . . . . . . . . . . ",
". . . . . . . . . . . . . . . . . . . . . . . . G+H+I+G.d.2.g.J+5+.+K+L+M+F+. . . . . . . . . . . . . . . . . . . . . . . . . ",
". . . . . . . . . . . . . . . . . . . . m P.N N+O+P+I+G.Q+R+Y.4+K.M.S+T+U+F++.^.A . . . . . . . . . . . . . . . . . . . . . . ",
". . . . . . . . . . . . . . . . %+P.N N+V+W+X+P Y+Z+I+G.d.R+Y.`+ @M..@+@@@F+#@m.l.A . . . . . . . . . . . . . . . . . . . . . ",
". . . . . . . . . . . . . P.$@%@&@*@=@-@-@;@>@,@P Z+'@z+|.;+g.I.)@6+!@~@{@F+]@& m.l.A . . . . . . . . . . . . . . . . . . . . ",
". . . . . . . . . . . . ^@/@(@) _@:@; n -@-@;@>@,@Z+<@` [@e.}@,+|@1@2@~+{@3@;@+ & m.l.A . . . . . . . . . . . . . . . . . . . ",
". . . . . . . . . . . . 4@2 # 5@) _@:@; n -@-@;@>@6@7@>.V.W.8@9@w.0@M.!@a@3@3 ) + & m.l.A . . . . . . . . . . . . . . . . . . ",
". . . . . . . . . . . . b@b 2 # 5@) _@:@; n -@-@;@6@c@d@e@Q+2.g.i.`.f@g@h@3@i@]@j@+ & m.l.A . . . . . . . . . . . . . . . . . ",
". . . . . . . . . . . . b@k@b 2 # 5@) _@:@; n -@-@6@l@;.` '.m@8@9@4+)@L.h@3@n@o@5@j@+ P m.l.A . . . . . . . . . . . . . . . . ",
". . . . . . . . . . . . b@p@k@b 2 # 5@) _@:@; n -@6@q@J r@e@d.;+}@h.4+)@h@3@s@& ) 5@j@+ -@m.l.A . . . . . . . . . . . . . . . ",
". . . . . . . . . . . . b@n p@k@b 2 # 5@) _@:@; n t@b@b@b@b@b@b@b@b@b@b@b@u@s@;@_@) 5@j@+ -@m.l.A . . . . . . . . . . . . . . ",
". . . . . . . . . . . . b@& -@p@k@b 2 # 5@) _@:@; n -@-@;@>@,@P Y+Y+]@& o@v@]@; :@_@) 5@j@) w@m.l.A . . . . . . . . . . . . . ",
". . . . . . . . . . . . b@n@& n p@k@b 2 # 5@) _@:@; n -@-@;@>@,@P Y+Y+]@& ]@-@n ; ; ;@P ,@n j@x@y@N . . . . . . . . . . . . . ",
". . . . . . . . . . . . b@z@]@]@n p@k@b 2 # 5@) _@:@; n -@-@;@>@,@P Y+Y+Y+,@,@P ;@_@p@Q x@# # # p@b@. . . . . . . . . . . . . ",
". . . . . . . . . . . . N A@n@]@]@n p@k@b 2 # 5@) _@:@; n -@-@;@>@,@P Y+-@) B@C@o x@B@p@p@B@x@# 5@b@. . . . . . . . . . . . . ",
". . . . . . . . . . . . A l.A@i@]@]@n p@k@b 2 # 5@) _@:@; n -@-@_@+ x@A z Q p@j@) 5@j@p@B@x@Q x@:@b@. . . . . . . . . . . . . ",
". . . . . . . . . . . . . A l.A@D@]@]@n p@k@b 2 # 5@) _@5@B@C@E@A o p@) ; ; :@) 5@j@p@B@x@Q o # >@b@. . . . . . . . . . . . . ",
". . . . . . . . . . . . . . A l.A@D@]@]@n p@k@b 2 x@C@k@k@C@p@:@;@>@;@-@; :@) 5@j@p@B@F@G@H@I@# ]@b@. . . . . . . . . . . . . ",
". . . . . . . . . . . . . . . A l.A@D@]@& -@p@k@b / A n Y+& Y+P >@;@-@; :@) 5@j@p@J@K@L@M@N@O@x@w@b@. . . . . . . . . . . . . ",
". . . . . . . . . . . . . . . . A l.A@D@]@& ;@p@k@/ B@o@& Y+P >@;@-@; :@) 5@j@p@B@P@Q@R@S@T@U@# m b@. . . . . . . . . . . . . ",
". . . . . . . . . . . . . . . . . A l.A@D@]@& Y+_@z p@& Y+P >@;@-@; :@) 5@j@p@B@x@V@W@X@Y@Z@`@]@O ^.. . . . . . . . . . . . . ",
". . . . . . . . . . . . . . . . . . A l.A@z@& & Y+B@+ Y+P >@;@-@; :@) 5@j@p@B@x@Q  #.#+#o@z@@#].##m.. . . . . . . . . . . . . ",
". . . . . . . . . . . . . . . . . . . A l.A@$#& ]@) j@P >@;@-@; :@) 5@j@p@B@j@; Y+i@D@X+*@^ %#_+G+. . . . . . . . . . . . . . ",
". . . . . . . . . . . . . . . . . . . . A l.A@$#o@-@) >@;@-@; :@) 5@_@n P w@i@=@&#*#=#_+G+n . . . . . . . . . . . . . . . . . ",
". . . . . . . . . . . . . . . . . . . . . A l.A@@#P _@;@-@; ; -@,@& v@-#P.;#&@_+G+n . . . . . . . . . . . . . . . . . . . . . ",
". . . . . . . . . . . . . . . . . . . . . . . _+>#w@n ;@>@P ]@= ,#'#>#^@G+n . . . . . . . . . . . . . . . . . . . . . . . . . ",
". . . . . . . . . . . . . . . . . . . . . . . . _+)#,@z@!#~#/@^@].A . . . . . . . . . . . . . . . . . . . . . . . . . . . . . ",
". . . . . . . . . . . . . . . . . . . . . . . . . ^@$@^@].A . . . . . . . . . . . . . . . . . . . . . . . . . . . . . . . . . ",
". . . . . . . . . . . . . . . . . . . . . . . . . . . . . . . . . . . . . . . . . . . . . . . . . . . . . . . . . . . . . . . ",
". . . . . . . . . . . . . . . . . . . . . . . . . . . . . . . . . . . . . . . . . . . . . . . . . . . . . . . . . . . . . . . ",
". . . . . . . . . . . . . . . . . . . . . . . . . . . . . . . . . . . . . . . . . . . . . . . . . . . . . . . . . . . . . . . ",
". . . . . . . . . . . . . . . . . . . . . . . . . . . . . . . . . . . . . . . . . . . . . . . . . . . . . . . . . . . . . . . ",
". . . . . . . . . . . . . . . . . . . . . . . . . . . . . . . . . . . . . . . . . . . . . . . . . . . . . . . . . . . . . . . ",
". . . . . . . . . . . . . . . . . . . . . . . . . . . . . . . . . . . . . . . . . . . . . . . . . . . . . . . . . . . . . . . ",
". . . . . . . . . . . . . . . . . . . . . . . . . . . . . . . . . . . . . . . . . . . . . . . . . . . . . . . . . . . . . . . ",
". . . . . . . . . . . . . . . . . . . . . . . . . . . . . . . . . . . . . . . . . . . . . . . . . . . . . . . . . . . . . . . ",
". . . . . . . . . . . . . . . . . . . . . . . . . . . . . . . . . . . . . . . . . . . . . . . . . . . . . . . . . . . . . . . "};
