/* XPM */
static char * lucky_xpm[] = {
"63 63 11 1",
" 	c None",
".	c #FFFFFF",
"+	c #AAAAAA",
"@	c #1D1D1D",
"#	c #555555",
"$	c #C7C7C7",
"%	c #000000",
"&	c #393939",
"*	c #E3E3E3",
"=	c #8E8E8E",
"-	c #727272",
"...............................................................",
"...............................................................",
"...............................................................",
"...............................................................",
"...............................................................",
"...............................................................",
"...............................................................",
"...............................................................",
"...............................................................",
"...............................................................",
"...............................................................",
"...............................................................",
"...............................................................",
"...............................................................",
"...............................................................",
"...............................................................",
"...............................................................",
"...............................................................",
"...............................................................",
"................+@..............+@..............+@.............",
"................##..............##..............##.............",
"................@+..............@+..............@+.............",
"...............$%&#$...........$%&#$...........$%&#$...........",
".............*&%%%%%+........*&%%%%%+........*&%%%%%+..........",
"............+@$=#*#&........+@$=#*#&........+@$=#*#&...........",
"...........$@*.#+..*.......$@*.#+..*.......$@*.#+..*...........",
"...........@-..%*..........@-..%*..........@-..%*..............",
"..........+%+.$@..........+%+.$@..........+%+.$@...............",
"..........#%-.=#..........#%-.=#..........#%-.=#...............",
"..........#%%*#+..........#%%*#+..........#%%*#+...............",
"..........=%%@%*..........=%%@%*..........=%%@%*...............",
"...........&%%%&*..........&%%%&*..........&%%%&*..............",
"............#%%%@*..........#%%%@*..........#%%%@*.............",
".............&%%%@...........&%%%@...........&%%%@.............",
".............%$@%%+..........%$@%%+..........%$@%%+............",
"............+@.*%%+.........+@.*%%+.........+@.*%%+............",
"............-#..#%$.........-#..#%$.........-#..#%$............",
"............&+..#&..........&+..#&..........&+..#&.............",
"............%*.*%$..........%*.*%$..........%*.*%$.............",
"...........+@..#=..........+@..#=..........+@..#=..............",
".......+-$.-#+@=.......+-$.-#+@=.......+-$.-#+@=...............",
"......$%%%%%%@+.......$%%%%%%@+.......$%%%%%%@+................",
"......+#%%%%=.........+#%%%%=.........+#%%%%=..................",
"..........+%..............+%..............+%...................",
"..........-#..............-#..............-#...................",
"..........#-..............#-..............#-...................",
"..........%+..............%+..............%+...................",
".........*=..............*=..............*=....................",
"...............................................................",
"...............................................................",
"...............................................................",
"...............................................................",
"...............................................................",
"...............................................................",
"...............................................................",
"...............................................................",
"...............................................................",
"...............................................................",
"...............................................................",
"...............................................................",
"...............................................................",
"...............................................................",
"..............................................................."};
