/* XPM */
static char * magicdm_xpm[] = {
"63 53 106 2",
"  	c None",
". 	c #FFFFFF",
"+ 	c #F6740B",
"@ 	c #FFF000",
"# 	c #EAEAEA",
"$ 	c #838383",
"% 	c #1F1F1F",
"& 	c #000000",
"* 	c #383838",
"= 	c #D4D4D4",
"- 	c #FFFC00",
"; 	c #F7F7F7",
"> 	c #BBBBBB",
", 	c #2B2B2B",
"' 	c #4B4B4B",
") 	c #3D3D3D",
"! 	c #717171",
"~ 	c #090909",
"{ 	c #010101",
"] 	c #212121",
"^ 	c #B4B4B4",
"/ 	c #1A1A1A",
"( 	c #080808",
"_ 	c #E9E9E9",
": 	c #060606",
"< 	c #111111",
"[ 	c #555555",
"} 	c #040404",
"| 	c #0B0B0B",
"1 	c #DCDCDC",
"2 	c #353535",
"3 	c #101010",
"4 	c #030303",
"5 	c #545454",
"6 	c #1B1B1B",
"7 	c #6C6C6C",
"8 	c #B7B7B7",
"9 	c #D9D9D9",
"0 	c #313131",
"a 	c #CDCDCD",
"b 	c #2D2D2D",
"c 	c #070707",
"d 	c #888888",
"e 	c #B5B5B5",
"f 	c #414141",
"g 	c #0A0A0A",
"h 	c #0E0E0E",
"i 	c #878787",
"j 	c #808080",
"k 	c #020202",
"l 	c #303030",
"m 	c #5B5B5B",
"n 	c #E2E2E2",
"o 	c #6D6D6D",
"p 	c #606060",
"q 	c #818181",
"r 	c #A1A1A1",
"s 	c #727272",
"t 	c #0D0D0D",
"u 	c #1E1E1E",
"v 	c #4C4C4C",
"w 	c #787878",
"x 	c #6A6A6A",
"y 	c #262626",
"z 	c #424242",
"A 	c #5A5A5A",
"B 	c #505050",
"C 	c #3C3C3C",
"D 	c #C3C3C3",
"E 	c #5C5C5C",
"F 	c #121212",
"G 	c #B6B6B6",
"H 	c #A0A0A0",
"I 	c #171717",
"J 	c #8A8A8A",
"K 	c #0C0C0C",
"L 	c #7F7F7F",
"M 	c #4D4D4D",
"N 	c #AAAAAA",
"O 	c #161616",
"P 	c #1C1C1C",
"Q 	c #0F0F0F",
"R 	c #1D1D1D",
"S 	c #444444",
"T 	c #F0F0F0",
"U 	c #D8D8D8",
"V 	c #BFBFBF",
"W 	c #C1C1C1",
"X 	c #929292",
"Y 	c #5D5D5D",
"Z 	c #131313",
"` 	c #202020",
" .	c #363636",
"..	c #8F8F8F",
"+.	c #515151",
"@.	c #939393",
"#.	c #D5D5D5",
"$.	c #DFDFDF",
"%.	c #434343",
"&.	c #757575",
"*.	c #AEAEAE",
"=.	c #323232",
"-.	c #FCFCFC",
";.	c #D0D0D0",
">.	c #E5E5E5",
",.	c #151515",
". . . . . . . . . . . . . . . . . . . . . . . . . . . . . . . . . . . . . . . . . . . . . . . . . . . . . . . . . . . . . . . ",
". . . . . . . . . . . . . . . . . . . . . . . . . . . . . . . . . . . . . . . . . . . . . . . . . . . . . . . . . . . . . . . ",
". . . . . . . . . . . . . . . . . . . . . . . . . . . . . . . . . . . . . . . . . . . . . . . . . . . . . . . . . . . . . . . ",
". . . . . . . . . . . . . . . . . . . . . . . . . . . . . . . . . . . + . . . . . . . + . . . . . . . . . . . . . . . . . . . ",
". . . . . . . . . . . . . . . . . . . . . . . . . . . . . . . . . . . @ + . . . . . + @ . . . . . . . . . . . . . . . . . . . ",
". . . . . . . . . . . . . . . . . . . . . . . . . . . . . . . . . . . . @ + . . . + @ . . . . . . . . . . . . . . . . . . . . ",
". . . . . . . . . . . . . . . . . . . . . . . . . . . . . . . . . . . . . @ + . + @ . + . . . . . . . + . . . . . . . . . . . ",
". . . . . . . . . . . . . . . . . . . . . . . . . . . . # $ % & * = . . . . @ + @ . . - + . . . . . + - . . . . . . . . . . . ",
". . . . . . . . . . . . . . . . . . . . . . . . . . ; > , ' . . & ) . . . . + @ + . . . - + . . . + - . . . . . . . . . . . . ",
". . . . . . . . . . . . . . . . . . . . . . . . . # ! ~ . . . . . & . . . + @ . @ + . . . - + . + - . . . . . . . . . . . . . ",
". . . . . . . . . . . . . . . . . . . . . . . ; > , { . . . . . . ) . . + @ . . . @ + . . . - + - . . . . . . . . . . . . . . ",
". . . . . . . . . . . . . . . . . . . . . . # ! ~ & . . . . . & ] = . + @ . . . . . @ + . . + - + . . . . . . . . . . . . . . ",
". . . . . . . . . . . . . . . . . . . . ; ^ / & & & . . . . ( ! _ . . @ . . . . . . . @ . + - . - + . . . . . . . . . . . . . ",
". . . . . . . . . . . . . . . . . . . # ! : & & & & & . . , > ; . . . . . . . . . . . . + - . . . - + . . . . . . . . . . . . ",
". . . . . . . . . . . . . . . . . # $ < & & & & & & & ( ! _ . . . . . . . . . + . . . + - . . + . . - + . . . . . . . . . . . ",
". . . . . . . . . . . . . . . . # [ } & & & & & & { , > ; . . . . . . . . . . @ + . . - . . + @ . . . - . . . + . . . . . . . ",
". . . . . . . . . . . . . . # $ < & & & & & & & | $ _ . . . . . . . . . . . . . @ + . . . + @ - + . . . . . + - . . . . . . . ",
". . . . . . . . . . . . . 1 2 { & & & & & & { 2 1 . . . . . . . . . . . . . . . . @ + . + @ . . - + . . . + - . . . . . . . . ",
". . . . . . . . . . . # $ | & & & & & & & 3 $ _ . . . . . . . . . . . . . . . . . . @ + @ . . . . - + . + - . . . . . . . . . ",
". . . . . . . . . ; > , { & & & & & & 4 5 _ . . . . . . . . . . . . . . . . . . . . + @ + . . . . . - + - . . . . + . . . . . ",
". . . . . . . . # ! ~ & & & & & & & 3 $ _ . . . . . . . . . . . . . . . . . . . . + @ . @ + . . . . + - + . . . . - + . . . . ",
". . . . . . ; > , { & & & & & & : ! _ . . . . . . . . . . . . . . . . . . . . . + @ . . . @ + . . + - . - + . . . . - + . . . ",
". . . . . # ! ~ & & & & & & & 6 ^ ; . . . . . . . . . . . . . . . . . . . . . + @ . . . . . @ + + - . . . - + . . . . - + . + ",
". . . # 7 } & & & & & & & ( ! _ . . . . . . . . . . . . . . . . . . . . . . . @ . . . . . . . @ - . . . . . - + . . . . - + - ",
". ; 8 / & & & & & & & { , > ; . . . . . . . . . . . . . . . . . . . . . . . . . . . . . . . . - . . . . . . . - . . . . + - + ",
". 9 0 & & & & & & & ( ! _ . . . . . . . . . . . . . . . . . . . . . . . . . . . . . . . . . . . . . . . . . . . . . . + - . - ",
". a & & & & & & & , > ; . . . . . . . . . . . . . . . . . . . . . . . . . . . . . . + . . . . . . . + . . . . . . . + - . . . ",
". 9 0 & & & & 4 7 _ . . . . . . . . . . . . . . . . . . . . . . . . . . . . . . . . - + . . . . . + - . . . . . . + - . . . . ",
". ; 8 b c b d _ . . . . . . . . . . . . . . . . . . . . . . . . . . . . . . . . . . . - + . . . + - . . . . . . . - . . . . . ",
". . . . . . . . . . . . . . . . . . . . . . . . . . . . . . . . . . . . . . . . . . . . - + . + - . . . . . . . . . . . . . . ",
". . . . . . . . . . . . . . . . . . e f g } g h h h h h / i . . . . . . . . . . . . . . . - + - . . . . . . . . . . . . . . . ",
". . . . . . . . . . . . . . . . . j : & & & & & & & & & & k l m e . . . . . . . . . . . . + - + . . . . . . . . . . . . . . . ",
". . . . . . . . . . . . . . . n [ & & & & & & & & & & & & & & & h % o n . . . . . . . . + - . - + . . . . . . . . . . . . . . ",
". . . . . . . . . . . . . . p } & & & } * q r r r r s ] t & & & & & & u e . . . . . . + - . . . - + . . . . . . . . . . . . . ",
". . . . . . . . . . . . . i { & & & 2 ^ . . . . . . . . n v : 4 & & & & g i . . . . + - . . . . . - + . . e 2 2 e . . . . . . ",
". . . . . . . . . . . . w 4 & & 4 w . . . . . . . . . . . / & & 3 4 & & & & x . . . - . . . . . . . - . . y & & m . . . . . . ",
". . . . . . . . . . e 2 } & & & z . . . . . . . . . . . . h & & r ^ b & & & & e . . . . . . . . . . . . w & & & A . . . . . . ",
". . . . . . . . e B : & & & & & & . . . . . . . . . . . . h & & r . ^ y & & & & C n . . . . . . . n q y { & & { ^ . . . . . . ",
". . . . . D E 0 ( & & & & F & & & . . . . . . . . . . . . | & & G . . n [ k & & & C . . . . H I } & & & & & & ' . . . . . . . ",
". . . . . J g { & & & & K ^ & & & . . . . . . . . . . . . & & & n . . . . L : & & & ~ & & & & & & & & & & } M n . . . . . . . ",
". . . . . N , h & O % o n . & & & . . . . . . . . . . . n & & & . . . . . . ^ P & & & & & & & & & & Q R & & S . . . . . . . . ",
". . . . . T U V W n . . . . & & & . . . . . . . . . . . X & & Q . . . . . . . . Y & & & & & & Z o n . j & & F . . . . . . . . ",
". . . . . . . . . . . . . . & & & . . . . . . . . . . . C & & ` . . . . . . . . G & & I . . . . . . . r & & h . . . . . . . . ",
". . . . . . . . . . . . . . & & & . . . . . . . . . . . F & & | . . . . . . . . r & & h . . . . . . . r & & h . . . . . . . . ",
". . . . . . . . . . . . . . & & & . . . . . . . . . . . h & &  .. . . . . . . . r & & h . . . . . . . r & & h . . . . . . . . ",
". . . . . . . . . . . . . . & & & . . . . . . . . . . . h & & ... . . . . . . . r & & h . . . . . . . r & & h . . . . . . . . ",
". . . . . . . . . . . . . . & & & . . . . . . . . . . . | & & G . . . . . . . . r & & h . . . . . . . r & & h . . . . . . . . ",
". . . . . . . . . . . . . . & & & . . . . . . . . . . . & & & H . . . . . . . . r & & h . . . . . . . G & & | . . . . . . . . ",
". . . . . . . . . . . . . . & & & . . . . . . . . . . . l & & +.. . . . . . . . r & & h . . . . . . . n & & & . . . . . . . . ",
". . . . . . . . . . . . . . & & & . . . . . . . . . . . @.} & l . . . . . . . . r & & h . . . . . . . . & & & #.. . . . . . . ",
". . . . . . . . . . . . . . ~ & ~ . . . . . . . . . . . $.%.F &.. . . . . . . . G & & / . . . . . . . . c & & *.. . . . . . . ",
". . . . . . . . . . . . . . i =.i . . . . . . . . . . . -.$.;.>.. . . . . . . . n [ ,.i . . . . . . . . 0 { h V . . . . . . . ",
". . . . . . . . . . . . . . . . . . . . . . . . . . . . . . . . . . . . . . . . . . . . . . . . . . . . D J N T . . . . . . . "};
