/* XPM */
static char * mapRecon_xpm[] = {
"63 63 253 2",
"  	c None",
". 	c #57FF44",
"+ 	c #55FF42",
"@ 	c #76FF67",
"# 	c #FFFFFF",
"$ 	c #152D73",
"% 	c #394D89",
"& 	c #FFFB44",
"* 	c #FFFC79",
"= 	c #FF8C8C",
"- 	c #FF4242",
"; 	c #FF4545",
"> 	c #66FF55",
", 	c #263C7D",
"' 	c #162E74",
") 	c #FFFB42",
"! 	c #FFFC9D",
"~ 	c #FF5E5E",
"{ 	c #FF4E4E",
"] 	c #7A88AF",
"^ 	c #FFFDBF",
"/ 	c #FFFEFA",
"( 	c #FF4747",
"_ 	c #60FF4E",
": 	c #FFFB70",
"< 	c #FFFB43",
"[ 	c #FF4444",
"} 	c #FF7C7C",
"| 	c #58FF45",
"1 	c #FFFB52",
"2 	c #FFFB4A",
"3 	c #FF9B9B",
"4 	c #6979A5",
"5 	c #FFFB48",
"6 	c #FFFB53",
"7 	c #FF9C9C",
"8 	c #A7FF9D",
"9 	c #273D7E",
"0 	c #1A3176",
"a 	c #FFFC88",
"b 	c #7E8BB2",
"c 	c #142C73",
"d 	c #182F75",
"e 	c #E3E6EE",
"f 	c #FF9797",
"g 	c #5FFF4D",
"h 	c #F9FAFB",
"i 	c #132B72",
"j 	c #586885",
"k 	c #FFFED7",
"l 	c #A2ABC7",
"m 	c #1F3679",
"n 	c #7987AF",
"o 	c #CED3E2",
"p 	c #BBFFB4",
"q 	c #3E528B",
"r 	c #FDFA76",
"s 	c #2F4483",
"t 	c #1B3276",
"u 	c #73FF64",
"v 	c #23397B",
"w 	c #FFFB51",
"x 	c #FFFB4E",
"y 	c #C0C6D9",
"z 	c #2B4180",
"A 	c #5AFF47",
"B 	c #61FF50",
"C 	c #243A7C",
"D 	c #FFFB60",
"E 	c #B2B9D1",
"F 	c #59FF46",
"G 	c #41548D",
"H 	c #172F74",
"I 	c #FFFC92",
"J 	c #2D4382",
"K 	c #7785AE",
"L 	c #F5FFF3",
"M 	c #929DBE",
"N 	c #FEFA43",
"O 	c #1C3377",
"P 	c #D2D7E4",
"Q 	c #BCFFB4",
"R 	c #FDF942",
"S 	c #9DA558",
"T 	c #7683AD",
"U 	c #77FF67",
"V 	c #FDFA42",
"W 	c #C5C851",
"X 	c #6272A1",
"Y 	c #8F9BBC",
"Z 	c #5DFF4A",
"` 	c #56FF43",
" .	c #ECFFEA",
"..	c #FFFED8",
"+.	c #FF5A5A",
"@.	c #ABFFA2",
"#.	c #FFFB61",
"$.	c #949FBF",
"%.	c #FF5050",
"&.	c #FF5252",
"*.	c #92FF86",
"=.	c #FFFB64",
"-.	c #9DA7C4",
";.	c #FF6060",
">.	c #FF4D4D",
",.	c #5BFF49",
"'.	c #BFFFB8",
").	c #FFFEE8",
"!.	c #1D3478",
"~.	c #FF8383",
"{.	c #FFFCFC",
"].	c #79FF6A",
"^.	c #FFFB4B",
"/.	c #5B6B9D",
"(.	c #FFB1B1",
"_.	c #FFDEDE",
":.	c #D8FFD4",
"<.	c #8E8E8E",
"[.	c #C7C7C7",
"}.	c #FFFC7B",
"|.	c #AFB7CF",
"1.	c #E3E3E3",
"2.	c #AAAAAA",
"3.	c #FFE2E2",
"4.	c #FFA5A5",
"5.	c #727272",
"6.	c #000000",
"7.	c #465990",
"8.	c #1D1D1D",
"9.	c #555555",
"0.	c #FF6F6F",
"a.	c #7FFF71",
"b.	c #FFFB6A",
"c.	c #FF5858",
"d.	c #75FF66",
"e.	c #EBFFE9",
"f.	c #393939",
"g.	c #FFFB5B",
"h.	c #FFFB67",
"i.	c #FF5F5F",
"j.	c #65FF54",
"k.	c #FF4646",
"l.	c #FFE3E3",
"m.	c #FFB4B4",
"n.	c #65FF53",
"o.	c #97FF8C",
"p.	c #A2FF97",
"q.	c #A6FF9C",
"r.	c #A5FF9B",
"s.	c #9AFF8F",
"t.	c #193075",
"u.	c #71FF61",
"v.	c #FDFFFC",
"w.	c #7DFF6F",
"x.	c #94FF88",
"y.	c #C9FFC2",
"z.	c #364A87",
"A.	c #7B88B0",
"B.	c #CDFFC7",
"C.	c #5BFF48",
"D.	c #69FF58",
"E.	c #D9FFD5",
"F.	c #C1FFBA",
"G.	c #F3F5F8",
"H.	c #6BFF5B",
"I.	c #8FFF83",
"J.	c #A1FF96",
"K.	c #8DFF80",
"L.	c #6EFF5E",
"M.	c #63FF52",
"N.	c #63FF51",
"O.	c #FFFB6B",
"P.	c #67FF56",
"Q.	c #FFFC81",
"R.	c #7381AB",
"S.	c #FFEAEA",
"T.	c #22397B",
"U.	c #FFA4A4",
"V.	c #FFFB5E",
"W.	c #F9FAF6",
"X.	c #283E7E",
"Y.	c #A7B0B4",
"Z.	c #FEFA42",
"`.	c #EAE946",
" +	c #6B7AA7",
".+	c #FF5C5C",
"++	c #A8AE55",
"@+	c #FFFEDB",
"#+	c #FF9595",
"$+	c #FF4343",
"%+	c #FFE9E9",
"&+	c #9FFF94",
"*+	c #FFFC89",
"=+	c #FFFC8C",
"-+	c #FFFC94",
";+	c #FFFDB2",
">+	c #FFD0D0",
",+	c #FF8F8F",
"'+	c #FFFB45",
")+	c #FFFA4A",
"!+	c #FF5353",
"~+	c #FFFC97",
"{+	c #FFFEE9",
"]+	c #FFFC96",
"^+	c #FF5D5D",
"/+	c #89FF7B",
"(+	c #FFFB4D",
"_+	c #FFF3F3",
":+	c #324784",
"<+	c #475A91",
"[+	c #FFFDA1",
"}+	c #FF8181",
"|+	c #70FF60",
"1+	c #7291A0",
"2+	c #FFFC7E",
"3+	c #FF4848",
"4+	c #FF4949",
"5+	c #5EFF4C",
"6+	c #AEFFA5",
"7+	c #2B4080",
"8+	c #FF7676",
"9+	c #EAFFE8",
"0+	c #8A96B9",
"a+	c #FFA2A2",
"b+	c #8997B7",
"c+	c #5D6E9E",
"d+	c #FFFB6D",
"e+	c #FFFC91",
"f+	c #FFC7C7",
"g+	c #FFDFDF",
"h+	c #5DFF4B",
"i+	c #C9FFC3",
"j+	c #FFFDB1",
"k+	c #FF8787",
"l+	c #8F9ABC",
"m+	c #6DFF5D",
"n+	c #9CA6C4",
"o+	c #42558E",
"p+	c #253B7D",
"q+	c #FFFDB4",
"r+	c #FF6767",
"s+	c #58FF46",
"t+	c #5CFF4A",
"u+	c #9BD9A5",
"v+	c #526498",
"w+	c #FFFB50",
"x+	c #FFA3A3",
"y+	c #6BFF5A",
"z+	c #FF5555",
"A+	c #B0B8D0",
"B+	c #FFFC8B",
"C+	c #95FF89",
"D+	c #D7DBE7",
". + + + + @ # # # # # # # # # # # # # # # $ % # & * # # # # # # # # # # # # # # # # # # # # # = - - ; # # # # # # # # # # # # ",
"+ + + + + > # # # # # # # # # # # # # # # , ' # ) ! # # # # # # # # # # # # # # # # # # # # # ~ - - { # # # # # # # # # # # # ",
"+ + + + + > # # # # # # # # # # # # # # # ] $ ^ ) / # # # # # # # # # # # # # # # # # # # # # ( - - ~ # # # # # # # # # # # # ",
"+ + + + + _ # # # # # # # # # # # # # # # ] $ : < # # # # # # # # # # # # # # # # # # # # # # [ - - } # # # # # # # # # # # # ",
"+ + + + + | # # # # # # # # # # # # # # # ] $ 1 2 # # # # # # # # # # # # # # # # # # # # # # [ - - 3 # # # # # # # # # # # # ",
"+ + + + + + # # # # # # # # # # # # # # # 4 $ 5 6 # # # # # # # # # # # # # # # # # # # # # # [ - - 7 # # # # # # # # # # # # ",
"+ + + + + + 8 # # # # # # # # # # # # # # 9 0 < a # # b c c c d e # # # # # # # # # # # # # # [ - - f # # # # # # # # # # # # ",
"+ + + + + + g # # # # # # # # # # # # # h i j ) k # l i m n n $ i o # # # # # # # # # # # # # [ - - 3 # # # # # # # # # # # # ",
"+ + + + + + + p # # # # # # # # # # # # q i r ) # # s t # # # h c 0 h # # # # # # # # # # # # [ - - 7 # # # # # # # # # # # # ",
"+ + + + + + + u # # # # # # # # # # # # , v w x # # 9 9 # # # # y i z # # # # # # # # # # # # [ - - f # # # # # # # # # # # # ",
"+ + + + A + + B # # # # # # # # # # # # C C < D # # 9 9 # # # # # b i E # # # # # # # # # # # [ - - 3 # # # # # # # # # # # # ",
"+ + + + A + + F # # # # # # # # # # # # G H < I # h i J # # # # # # c K # # # # # # # # # # # [ - - 7 # # # # # # # # # # # # ",
"+ + + + + + + + L # # # # # # # # # # # M i N I h O i P # # # # # # c K # # # # # # # # # # # [ - - f # # # # # # # # # # # # ",
"+ + + + + + + + Q # # # # # # # # # # # # H R S i i T # # # # # # # c K # # # # # # # # # # # [ - - 3 # # # # # # # # # # # # ",
"+ + . + + + + + U # # # # # # # # # # # # # V W X # # # # # # # # P i Y # # # # # # # # # # # [ - - 7 # # # # # # # # # # # # ",
"+ + Z + + . + + Z # # # # # # # # # # # # # x ) # # # # # # # # h 0 0 h # # # # # # # # # # # [ - - } # # # # # # # # # # # # ",
"+ + + + + A + + `  .# # # # # # # # # # # # # ) ..# # # # # # # q i P # # # # # # # # # # # # ( - - +.# # # # # # # # # # # # ",
"+ + + + + + + + + @.# # # # # # # # # # # # # < #.# # # # # # $.i X # # # # # # # # # # # # # %.- - &.# # # # # # # # # # # # ",
"+ + + + + + + + + *.# # # # # # # # # # # # # =.) # # # # # -.i v # # # # # # # # # # # # # # ;.- - >.# # # # # # # # # # # # ",
"+ + ` + + + + + ,.'.# # # # # # # # # # # # # ).) ..# # # # m !.# # # # # # # # # # # # # # # ~.- - [ {.# # # # # # # # # # # ",
"+ + + + + ].# # # # # # # # # # # # # # # # # # < ^.# # # # i /.# # # # # # # # # # # # # # # (.- - - _.# # # # # # # # # # # ",
"+ + + + Z :.# # <.# # # # # # # # # # # [.<.# # }.) # # # |.i e # 1.2.# <.[.# # # # # # # # # 3.- - - 4.# # # 1.2.# <.[.# # # ",
"+ + + + @.# # 5.1.# # # # # # # # # # # 5.6.# # ).) # # # 7.m # 1.5.# # 8.9.# # # # # # # # # # [ - - 0.# # 1.5.# # 8.9.# # # ",
"+ + + . L # <.2.# # # # # # # # # # # # 2.6.2.# # ) ^ # # # # # 9.1.# # 9.6.# # # # # # # # # # >.- - +.# # 9.1.# # 9.6.# # # ",
"+ + + a.# 1.9.# # # # # # # # # # # # # # 6.2.# # < b.# # # # <.2.# # # 2.6.# # # # # # # # # # c.- - c.# <.2.# # # 2.6.# # # ",
"+ + d.e.# f.1.# # # # # # # # # # # # # # 6.2.# # g.) h.# # 1.f.# # # # 2.6.# # # # # # # # # # i.- - i.1.f.# # # # 2.6.# # # ",
"+ j.# # [.9.# # # # # # # # # # # # # # # 6.2.# # / g.h.# # 5.2.# # # # 2.6.# # # # # # # # # # = k.k.= 5.2.# # # # 2.6.# # # ",
"+ . # # 5.[.# # # # # # # # # # # # # # # 6.[.# # # # # # # f.# # # # # 2.8.# # # # # # # # # # l.m.m.l.f.# # # # # 2.8.# # # ",
"+ + # # 8.# # # # # # # # # # # # # # # # 6.# # # # # # # 2.5.# # # # # 2.9.1.2.2.2.2.2.2.2.2.[.# # # 2.5.# # # # # 2.9.# # # ",
"+ + # 2.9.# # # # # # # # # # # # # # # 2.8.# # # # # # # 9.2.# # # # # 9.5.[.9.9.9.9.9.9.9.9.<.# # # 9.2.# # # # # 9.5.# # # ",
"+ n.# 9.2.# # # # # # # # # # # # # # # 2.9.# # # # # # # 6.# # # # # # 9.2.# # # # # # # # # # # # # 6.# # # # # # 9.2.# # # ",
"+ o.# f.2.# # # # # # # # # # # # # # # 9.2.# # # # # # 1.6.# # # # # # 6.# # # # # # # # # # # # # 1.6.# # # # # # 6.# # # # ",
"+ p.# 6.# # # # # # # # # # # # # # # # 8.# # # # # # # 2.9.# # # # # [.9.# 1.2.2.2.2.2.2.2.2.[.# # 2.9.# # # # # [.9.# # # # ",
"+ q.[.6.# # # # # # # # # # # # # # # [.5.# # 1.f.# # # 5.9.# # # # # 5.[.# [.9.9.9.9.9.9.9.9.<.# # 5.9.# # # # # 5.[.# # # # ",
"+ r.2.6.# # # # # # # # # # # # # # # 9.[.# # f.6.<.# # 9.9.# # # # # 8.# # # # # # # # # # # # # # 9.9.# # # # # 8.# # # # # ",
"+ p.2.6.# # # # # # # # # # # # # # 1.f.# # # 2.9.# # # 9.9.# # # # <.<.# # # # # # # # # # # # # # 9.9.# # # # <.<.# # # # # ",
"+ q.2.6.# # # # # # # # # # # # # # 9.1.# # # # # # # # 9.9.# # # 1.9.# # # # # # # # # # # # # # # 9.9.# # # 1.9.# # # # # # ",
"+ s.[.6.2.# # # # # # # # # # # # 2.<.# # # # # # # # # 5.6.# # # 9.1.t.X # # # # # # # # # # # # # 5.6.# # # 9.1.# # # # # # ",
"+ u.v.6.5.# # # # # # # # # # # 1.5.L @.w.w.x.y.# # # # 2.6.[.# 2.2.# z.i A.# # # # # # # # # # # # 2.6.[.# 2.2.# # # # # # # ",
"+ . B.<.[.# # # # # # # # # # # <.# 8 ` + + + C.:.# # # # 5.1.1.2.# # # t i # # # # # # # # # # # # # 5.1.1.2.# # # # # # # # ",
"+ + D.E.v.# # # # # # # # # # # # F.C.+ + + + + u.# # # # # # # # # # # G.i # # # # # # # # # # # # # # # # # # # # # # # # # ",
"+ + + + ` | Z H.I.q.p.J.K.L.M.N.C.+ + + + + + + + # # # # # O.2 # # # # # i # # # # # # # # # # # # # 3 ;.3 # # # # # # # # # ",
"+ + + + + + + + + + + + + + + + + + + + + P.+ + + # # # # # ^ ) Q.# # # R.i # # # # # # # # # # # # # [ - [ S.# # # # # # # # ",
"+ + + + + + + + + + + + + + + + + + + + + + + + + # # # # # # =.) h.# # i T.# # # # # # # # # # # # # - - - U.# # # # # # # # ",
"+ + | ` . Z ` + + + + + + + + + + + + + + + + + + # # # # # # # V.) W.X.i e # # # # # # # # # # # # # [ - - ~ # # # # # # # # ",
"+ + + + + + + + + + + + + + + + + + + + + . + + + # # # # # # # Y.Z.`.i  +# # # # # # # # # # # # # # .+- - ( # # # # # # # # ",
"+ + + + + + + + + + + + + + + + + + + + + ` + + g # # # # # e ' i ++) 6 @+# # # # # # # # # # # # # # #+- - $+%+# # # # # # # ",
"+ + + + + + + + + + + + + + . + + + + + + + + + &+# # # # e i c e # *+) ) =+-+-+-+-+-+-+;+# # # # # # >+- - - ,+# # # # # # # ",
"+ + + + + + + + + + + + + + + + + + + + + + + D.e.# # # h c d h # # # / < & '+'+'+'+'+'+& & '+'+'+'+'+)+k.- - !+# # # # # # # ",
"+ + + + + + + + + + + + + + + + + + + + + + . :.# # # l i ' h # # # # / ) ~+# # # # # # {+]+-+-+-+-+-+;+^+- - ( # # # # # # # ",
"+ + + + + + + + + + + + + ` + + + + + + + + /+# # e C i v h # # # # # (+) / # # # # # # # # # # # # # # #+- - $+_+# # # # # # ",
"+ + + + + + + + + + F + + + + + + + + + + H.e.# :+i i <+# # # # # # #.) [+# # # # # # # # # # # # # # # >+- - - }+# # # # # # ",
"+ + + + + + + + + + + + + + + + + + + + |+1+$ i i X h # # # # # # 2+) #.# # # # # # # # # # # # # # # # _+3+- - 4+# # # # # # ",
"+ + + + + + + + + + + + + + + + + + 5+6+v i 7+e # # # # # # # # 2+) 6 # # # # # # # # # # # # # # # # # # 8+- - [ # # # # # # ",
"+ + + + + + + + + + + + + + + + + . 9+X.i 0+# # # # # # # # ).#.) 6 # # # # # # # # # # # # # # # # # # # a+- - - # # # # # # ",
"+ + + + + + + + + A + + + + + + ,.r.b+i c+# # # # # # # / d+) ) e+# # # # # # # # # # # # # # # # # # # # f+- - - g+# # # # # ",
"+ + + + + + + + + + + + h+i+# # # # H O # # # # # # # j+) ) V./ # # # # # # # # # # # # # # # # # # # # # _+- - - k+# # # # # ",
"+ + + + + + + + + + + + y.# # # # e i l+# # # # # ).w ) 2 / # # # # # # # # # # # # # # # # # # # # # # # # ( - - %.# # # # # ",
"+ + + + + + + + + + + m+# n+o+p+T.i c # # # # # q+& ) *+# # # # # # # # # # # # # # # # # # # # # # # # # # r+- - [ _+# # # # ",
"+ + + + + s++ + + + t+u+t i i T., v+# # # # # *+) w+/ # # # # # # # # # # # # # # # # # # # # # # # # # # # U.- - - x+# # # # ",
"+ + + + + + + + + y+:.i H P # # # # # # # # *+) 1 / # # # # # # # # # # # # # # # # # # # # # # # # # # # # g+- - - z+# # # # ",
"+ + + + + + + + r.v.A+i P # # # # # # # # B+) g.# # # # # # # # # # # # # # # # # # # # # # # # # # # # # # # - - - [ # # # # ",
"+ + + + + _ ,.C+# # h D+# # # # # # # # # h.B+# # # # # # # # # # # # # # # # # # # # # # # # # # # # # # # # - - - $+# # # # "};
