/* XPM */
static char * saveOutputs_xpm[] = {
"63 63 371 2",
"  	c None",
". 	c #FFFFFF",
"+ 	c #707070",
"@ 	c #000000",
"# 	c #101010",
"$ 	c #404040",
"% 	c #60975C",
"& 	c #86CC7F",
"* 	c #8ECF85",
"= 	c #94D28B",
"- 	c #9BD591",
"; 	c #A1D897",
"> 	c #A7DB9D",
", 	c #ADDEA3",
"' 	c #B3E0A8",
") 	c #B8E3AE",
"! 	c #198E35",
"~ 	c #06230D",
"{ 	c #62985E",
"] 	c #8ACE82",
"^ 	c #91D188",
"/ 	c #98D48E",
"( 	c #9FD795",
"_ 	c #A5DA9B",
": 	c #ACDDA2",
"< 	c #BFE5B4",
"[ 	c #65995F",
"} 	c #8DCF84",
"| 	c #9CD591",
"1 	c #A2D998",
"2 	c #A9DC9F",
"3 	c #B0DFA6",
"4 	c #B7E2AC",
"5 	c #BEE5B3",
"6 	c #C5E7BA",
"7 	c #669A60",
"8 	c #8FD086",
"9 	c #97D38D",
"0 	c #9ED794",
"a 	c #B4E1A9",
"b 	c #BBE4B0",
"c 	c #C3E7B8",
"d 	c #C9E9BF",
"e 	c #198D35",
"f 	c #689A61",
"g 	c #99D48F",
"h 	c #A0D896",
"i 	c #AFDEA5",
"j 	c #B6E2AC",
"k 	c #BEE5B4",
"l 	c #C6E8BC",
"m 	c #CCEBC3",
"n 	c #188D35",
"o 	c #699B62",
"p 	c #92D189",
"q 	c #9AD590",
"r 	c #B1DFA7",
"s 	c #C1E6B6",
"t 	c #CFECC7",
"u 	c #05230D",
"v 	c #699B63",
"w 	c #93D28A",
"x 	c #A2D999",
"y 	c #AADCA0",
"z 	c #B2E0A8",
"A 	c #BAE3AF",
"B 	c #CAEAC0",
"C 	c #D1EDC9",
"D 	c #178D35",
"E 	c #BAE3B0",
"F 	c #CAEAC1",
"G 	c #D2EDC9",
"H 	c #178E35",
"I 	c #B2E0A7",
"J 	c #B9E3AF",
"K 	c #C2E6B7",
"L 	c #C9EABF",
"M 	c #D1EDC8",
"N 	c #168E35",
"O 	c #C0C0C0",
"P 	c #808080",
"Q 	c #202020",
"R 	c #689B62",
"S 	c #A8DB9E",
"T 	c #B8E2AE",
"U 	c #C0E6B6",
"V 	c #C8E9BE",
"W 	c #CEECC6",
"X 	c #168D34",
"Y 	c #A0A0A0",
"Z 	c #040B05",
"` 	c #28592C",
" .	c #2C5B2F",
"..	c #305D31",
"+.	c #345E34",
"@.	c #386037",
"#.	c #3C623A",
"$.	c #40643D",
"%.	c #78B471",
"&.	c #90D188",
"*.	c #A0D795",
"=.	c #A6DB9C",
"-.	c #AEDEA4",
";.	c #B6E1AB",
">.	c #BDE5B3",
",.	c #C5E8BA",
"'.	c #CBEAC2",
").	c #158D34",
"!.	c #0C5821",
"~.	c #09461A",
"{.	c #08461A",
"].	c #06461A",
"^.	c #05461A",
"/.	c #011106",
"(.	c #606060",
"_.	c #2E6432",
":.	c #58B55D",
"<.	c #5FB962",
"[.	c #67BD68",
"}.	c #6FC16E",
"|.	c #77C573",
"1.	c #7EC879",
"2.	c #87CC7F",
"3.	c #8ED085",
"4.	c #96D38C",
"5.	c #9DD693",
"6.	c #A4DA9A",
"7.	c #ABDDA1",
"8.	c #C8E9BD",
"9.	c #42A458",
"0.	c #42A559",
"a.	c #43A55A",
"b.	c #42A65B",
"c.	c #42A65C",
"d.	c #33A052",
"e.	c #0C8D34",
"f.	c #076024",
"g.	c #303030",
"h.	c #F0F0F0",
"i.	c #418745",
"j.	c #5DB861",
"k.	c #65BC66",
"l.	c #6CC06C",
"m.	c #74C472",
"n.	c #7CC778",
"o.	c #84CB7E",
"p.	c #8CCF83",
"q.	c #A7DB9E",
"r.	c #BCE4B1",
"s.	c #D0ECC8",
"t.	c #D3EECB",
"u.	c #D5EECD",
"v.	c #58B26F",
"w.	c #0A7B2E",
"x.	c #101812",
"y.	c #E0E0E0",
"z.	c #141B15",
"A.	c #50A054",
"B.	c #63BB65",
"C.	c #6ABF6A",
"D.	c #72C270",
"E.	c #79C675",
"F.	c #81CA7B",
"G.	c #89CD81",
"H.	c #90D087",
"I.	c #A4D99A",
"J.	c #B1DFA6",
"K.	c #BCE4B2",
"L.	c #C7E8BC",
"M.	c #CAEABF",
"N.	c #CCEBC2",
"O.	c #85C88F",
"P.	c #0B8431",
"Q.	c #021A09",
"R.	c #B0B0B0",
"S.	c #112212",
"T.	c #60BA63",
"U.	c #6EC16D",
"V.	c #76C573",
"W.	c #7DC879",
"X.	c #85CC7E",
"Y.	c #8CCF84",
"Z.	c #A5DA9C",
"`.	c #B6E2AB",
" +	c #A3D7A1",
".+	c #043513",
"++	c #909090",
"@+	c #234525",
"#+	c #64BC66",
"$+	c #6BBF6B",
"%+	c #72C370",
"&+	c #79C676",
"*+	c #81C97B",
"=+	c #88CD80",
"-+	c #95D28B",
";+	c #A1D896",
">+	c #ABDCA1",
",+	c #B0DFA5",
"'+	c #B7E2AD",
")+	c #AFDEA8",
"!+	c #17933D",
"~+	c #064F1D",
"{+	c #505050",
"]+	c #3D743E",
"^+	c #76C473",
"/+	c #83CB7D",
"(+	c #A4DA9B",
"_+	c #2C9D4A",
":+	c #09722A",
"<+	c #529853",
"[+	c #6ABE6A",
"}+	c #71C26F",
"|+	c #78C574",
"1+	c #85CB7E",
"2+	c #8BCE82",
"3+	c #90D187",
"4+	c #95D38C",
"5+	c #9FD794",
"6+	c #47AB5D",
"7+	c #D0D0D0",
"8+	c #0C170C",
"9+	c #60B161",
"0+	c #6CBF6C",
"a+	c #7EC87A",
"b+	c #94D28A",
"c+	c #9CD692",
"d+	c #68BC71",
"e+	c #1D1D1D",
"f+	c #444444",
"g+	c #5F5F5F",
"h+	c #192F19",
"i+	c #6DC06C",
"j+	c #73C371",
"k+	c #8DCF85",
"l+	c #7BC57B",
"m+	c #14913A",
"n+	c #053D17",
"o+	c #454545",
"p+	c #7C7C7C",
"q+	c #B3B3B3",
"r+	c #DBDBDB",
"s+	c #DADADA",
"t+	c #2C522C",
"u+	c #68BD69",
"v+	c #6DC06D",
"w+	c #78C674",
"x+	c #7DC878",
"y+	c #82CA7C",
"z+	c #82CA7D",
"A+	c #1C953E",
"B+	c #065821",
"C+	c #353535",
"D+	c #0E0E0E",
"E+	c #464646",
"F+	c #7F7F7F",
"G+	c #B6B6B6",
"H+	c #DFDFDF",
"I+	c #DEDEDE",
"J+	c #DDDDDD",
"K+	c #DCDCDC",
"L+	c #282828",
"M+	c #448146",
"N+	c #7BC777",
"O+	c #7FC97A",
"P+	c #299C47",
"Q+	c #08722B",
"R+	c #1D2520",
"S+	c #D9D9D9",
"T+	c #D8D8D8",
"U+	c #575757",
"V+	c #BABABA",
"W+	c #E4E4E4",
"X+	c #E3E3E3",
"Y+	c #E2E2E2",
"Z+	c #E1E1E1",
"`+	c #CCCCCC",
" @	c #131913",
".@	c #509852",
"+@	c #66BD67",
"@@	c #70C16E",
"#@	c #74C371",
"$@	c #3AA550",
"%@	c #0A8431",
"&@	c #AAAAAA",
"*@	c #E7E7E7",
"=@	c #F6F6F6",
"-@	c #EAEAEA",
";@	c #E5E5E5",
">@	c #B1B1B1",
",@	c #5AAE5D",
"'@	c #69BE69",
")@	c #4EB05B",
"!@	c #0B8D35",
"~@	c #032C10",
"{@	c #848484",
"]@	c #D2D2D2",
"^@	c #D1D1D1",
"/@	c #FAFAFA",
"(@	c #7A7A7A",
"_@	c #1C391E",
":@	c #5EB861",
"<@	c #52B25B",
"[@	c #109038",
"}@	c #4F4F4F",
"|@	c #D4D4D4",
"1@	c #D3D3D3",
"2@	c #E6E6E6",
"3@	c #F2F2F2",
"4@	c #515151",
"5@	c #27582C",
"6@	c #1A953D",
"7@	c #D5D5D5",
"8@	c #D7D7D7",
"9@	c #E8E8E8",
"0@	c #CDCDCD",
"a@	c #0E1610",
"b@	c #BCBCBC",
"c@	c #D6D6D6",
"d@	c #BFBFBF",
"e@	c #EBEBEB",
"f@	c #BEBEBE",
"g@	c #ECECEC",
"h@	c #7B7B7B",
"i@	c #E9E9E9",
"j@	c #EEEEEE",
"k@	c #EDEDED",
"l@	c #EFEFEF",
"m@	c #CFCFCF",
"n@	c #F1F1F1",
"o@	c #DDE2DE",
"p@	c #B4CBBA",
"q@	c #7EAC89",
"r@	c #8EB697",
"s@	c #F5F5F5",
"t@	c #A4C0AB",
"u@	c #38814A",
"v@	c #106B26",
"w@	c #257F34",
"x@	c #207D31",
"y@	c #157729",
"z@	c #1E7633",
"A@	c #409747",
"B@	c #4FA551",
"C@	c #3D9844",
"D@	c #248833",
"E@	c #278837",
"F@	c #157929",
"G@	c #177D2A",
"H@	c #19812B",
"I@	c #288C38",
"J@	c #5EA96A",
"K@	c #C1D6C4",
"L@	c #B8D2BD",
"M@	c #8CBB94",
"N@	c #B8CCBB",
"O@	c #CBCBCB",
"P@	c #4B4B4B",
"Q@	c #4C4C4C",
"R@	c #383838",
"S@	c #818181",
"T@	c #4D4D4D",
"U@	c #393939",
"V@	c #C6C6C6",
"W@	c #5B5B5B",
"X@	c #565656",
"Y@	c #CACACA",
"Z@	c #939393",
"`@	c #5D5D5D",
" #	c #525252",
".#	c #959595",
"+#	c #5E5E5E",
". . . . . . . . . . . . . . . . . . . . . . . . . . . . . . . . . . . . . . . . . . . . . . . . . . . . . . . . . . . . . . . ",
". . . . . . . . . . . . . . . . . . . . . . . . . . . . . . . . . . . . . . . . . . . . . . . . . . . . . . . . . . . . . . . ",
". . . . . . . . . . . . . . . . . . . . . . . . . . . . . . . . . . . . . . . . . . . . . . . . . . . . . . . . . . . . . . . ",
". . . . . . . . . . . . . . . . . . . . . . . . . . . . . . . . . . . . . . . . . . . . . . . . . . . . . . . . . . . . . . . ",
". . . . . . . . . . . . . . . . . . . . . . . . . . . . . . . . . . . . . . . . . . . . . . . . . . . . . . . . . . . . . . . ",
". . . . . . . . . . . . . . . . . . . . . . . . . . . . . . . . . . . . . . . . . . . . . . . . . . . . . . . . . . . . . . . ",
". . . . . . . . . . . . . . . . . . . . . . . . . . . . . . . . . . . . . . . . . . . . . . . . . . . . . . . . . . . . . . . ",
". . . . . . . . . . . . . . . . . . . . . . . . . . . . . . . . . . . . . . . . . . . . . . . . . . . . . . . . . . . . . . . ",
". . . . . . . . . . . . . . . . . . . . . . . . . . + @ @ @ @ @ @ @ @ @ @ @ # . . . . . . . . . . . . . . . . . . . . . . . . ",
". . . . . . . . . . . . . . . . . . . . . . . . . . $ % & * = - ; > , ' ) ! ~ . . . . . . . . . . . . . . . . . . . . . . . . ",
". . . . . . . . . . . . . . . . . . . . . . . . . . $ { ] ^ / ( _ : ' ) < ! ~ . . . . . . . . . . . . . . . . . . . . . . . . ",
". . . . . . . . . . . . . . . . . . . . . . . . . . $ [ } = | 1 2 3 4 5 6 ! ~ . . . . . . . . . . . . . . . . . . . . . . . . ",
". . . . . . . . . . . . . . . . . . . . . . . . . . $ 7 8 9 0 _ : a b c d e ~ . . . . . . . . . . . . . . . . . . . . . . . . ",
". . . . . . . . . . . . . . . . . . . . . . . . . . $ f ^ g h > i j k l m n ~ . . . . . . . . . . . . . . . . . . . . . . . . ",
". . . . . . . . . . . . . . . . . . . . . . . . . . $ o p q ; 2 r ) s d t n u . . . . . . . . . . . . . . . . . . . . . . . . ",
". . . . . . . . . . . . . . . . . . . . . . . . . . $ v w - x y z A c B C D u . . . . . . . . . . . . . . . . . . . . . . . . ",
". . . . . . . . . . . . . . . . . . . . . . . . . . $ v w | x y ' E c F G H u . . . . . . . . . . . . . . . . . . . . . . . . ",
". . . . . . . . . . . . . . . . . . . . . . . . . . $ v w - 1 2 I J K L M N u . . . . . . . . . . . . . . . . . . . . . . . . ",
". . . . . . . . . . . . . . . . . . . O P P P P P P Q R p q ; S 3 T U V W X u P P P P P P Y . . . . . . . . . . . . . . . . . ",
". . . . . . . . . . . . . . . . . . . Z `  ...+.@.#.$.%.&./ *.=.-.;.>.,.'.).!.~.{.{.].].^./.O . . . . . . . . . . . . . . . . ",
". . . . . . . . . . . . . . . . . . . (._.:.<.[.}.|.1.2.3.4.5.6.7.' J s 8.9.0.a.b.c.d.e.f.g.. . . . . . . . . . . . . . . . . ",
". . . . . . . . . . . . . . . . . . . h.g.i.j.k.l.m.n.o.p.w q ; q.i ;.r.c V m s.t.u.v.w.x.y.. . . . . . . . . . . . . . . . . ",
". . . . . . . . . . . . . . . . . . . . y.z.A.B.C.D.E.F.G.H.9 0 I.y J.4 K.K L.M.N.O.P.Q.O . . . . . . . . . . . . . . . . . . ",
". . . . . . . . . . . . . . . . . . . . . R.S.T.[.U.V.W.X.Y.w q h Z.7.r `.E < c  +e..+++. . . . . . . . . . . . . . . . . . . ",
". . . . . . . . . . . . . . . . . . . . . . P @+#+$+%+&+*+=+8 -+- ;+Z.>+,+a '+)+!+~+{+. . . . . . . . . . . . . . . . . . . . ",
". . . . . . . . . . . . . . . . . . . . . . . {+]+[.U.^+n./+] H.4.- h (+2 , 3 _+:+g.h.. . . . . . . . . . . . . . . . . . . . ",
". . . . . . . . . . . . . . . . . . . . . . . h.Q <+[+}+|+1.1+2+3+4+q 5+1 Z.6+P.x.7+. . . . . . . . . . . . . . . . . . . . . ",
". . . . . . . . . . . . . . . . . . . . . . . . Y 8+9+0+%+E.a+1+] 8 b+/ c+d+e.Q.R.. . . . . . . . . . . . . . . . . . . . . . ",
". . . . . . . . . . . . . . . . . . . . 7+++{+e+f+g+h+[.i+j+E.1.o.G.k+^ l+m+n+Q h.. . . . . . . . . . . . . . . . . . . . . . ",
". . . . . . . . . . . . . . . . O ++{+e+o+p+q+r+s+s+g+t+u+v+j+w+x+y+& z+A+B+C+P g.h.. . . . . . . . . . . . . . . . . . . . . ",
". . . . . . . . . . . . . ++$ D+E+F+G+H+H+I+J+K+r+s+s+L+M+[.l.D.|.N+O+P+Q+R+S+T+P g.h.. . . . . . . . . . . . . . . . . . . . ",
". . . . . . . . . . . . + U+V+W+X+Y+Z+y.H+H+I+J+K+r+s+`+ @.@+@$+@@#@$@%@/.&@I+*@T+P g.h.. . . . . . . . . . . . . . . . . . . ",
". . . . . . . . . . . . # =@-@;@W+X+Y+Z+y.H+H+I+J+K+r+s+>@S.,@k.'@)@!@~@{@]@^@W+*@T+P g.h.. . . . . . . . . . . . . . . . . . ",
". . . . . . . . . . . . @ /@=@-@;@W+X+Y+Z+y.H+H+I+J+K+r+s+(@_@:@<@[@^.}@|@1@]@S+2@*@T+P g.h.. . . . . . . . . . . . . . . . . ",
". . . . . . . . . . . . @ 3@/@=@-@;@W+X+Y+Z+y.H+H+I+J+K+r+s+4@5@6@f.L+7@|@|@1@8@;@2@*@r+P g.h.. . . . . . . . . . . . . . . . ",
". . . . . . . . . . . . @ 9@3@/@=@-@;@W+X+Y+Z+y.H+H+I+J+K+r+0@L+~+a@b@c@7@|@|@T+W+;@2@*@H+P g.h.. . . . . . . . . . . . . . . ",
". . . . . . . . . . . . @ y.9@3@/@=@-@;@W+X+Y+Z+y.H+H+I+J+K+r+d@g+R.T+8@c@7@|@I+X+W+;@2@*@H+P g.h.. . . . . . . . . . . . . . ",
". . . . . . . . . . . . @ T+H+9@3@/@=@-@;@W+X+Y+Z+y.H+H+I+J+K+r+s+s+S+T+8@c@S+Z+Y+X+W+;@2@W+7@P g.h.. . . . . . . . . . . . . ",
". . . . . . . . . . . . @ 1@T+y.9@3@/@=@-@;@W+X+Y+Z+y.H+H+I+J+K+r+s+s+S+T+S+H+y.Z+Z+I+r+K+y.2@e@f@{+. . . . . . . . . . . . . ",
". . . . . . . . . . . . @ 0@S+S+y.9@3@/@=@-@;@W+X+Y+Z+y.H+H+I+J+K+r+s+s+s+K+K+r+I+X+9@g@e@-@-@-@9@@ . . . . . . . . . . . . . ",
". . . . . . . . . . . . {+h@1@S+S+y.9@3@/@=@-@;@W+X+Y+Z+y.H+H+I+J+K+r+s+H+W+i@j@k@e@i@9@9@i@e@-@;@@ . . . . . . . . . . . . . ",
". . . . . . . . . . . . h.g.h@]@S+S+y.9@3@/@=@-@;@W+X+Y+Z+y.H+H+X+*@e@h.l@g@9@2@W+;@2@9@i@e@g@e@Y+@ . . . . . . . . . . . . . ",
". . . . . . . . . . . . . h.g.h@m@S+S+y.9@3@/@=@-@;@W+X+;@i@j@n@h.k@9@W+Z+Z+Y+W+;@2@9@i@e@g@k@-@J+@ . . . . . . . . . . . . . ",
". . . . . . . . . . . . . . h.g.h@m@S+S+y.9@3@/@=@e@j@3@3@j@9@Y+I+J+I+H+Z+Y+W+;@2@9@i@o@p@q@r@-@S+@ . . . . . . . . . . . . . ",
". . . . . . . . . . . . . . . h.g.h@m@S+T+H+9@3@/@s@h.y.s+T+s+r+J+I+H+Z+Y+W+;@2@9@t@u@v@w@x@y@e@7@@ . . . . . . . . . . . . . ",
". . . . . . . . . . . . . . . . h.g.h@m@S+T+I+9@3@s@i@8@T+s+r+J+I+H+Z+Y+W+;@2@9@i@z@A@B@C@D@E@-@7+@ . . . . . . . . . . . . . ",
". . . . . . . . . . . . . . . . . h.g.h@m@S+T+s+X+l@9@T+s+r+J+I+H+Z+Y+W+;@2@9@i@e@F@G@H@I@J@K@S+d@Q . . . . . . . . . . . . . ",
". . . . . . . . . . . . . . . . . . h.g.h@0@T+T+s+i@*@s+r+J+I+H+Z+Y+W+;@2@9@i@e@g@L@M@N@8@0@O@R.P@P . . . . . . . . . . . . . ",
". . . . . . . . . . . . . . . . . . . h.g.h@`+T+S+W+2@r+J+I+H+Z+Y+W+;@2@9@i@2@Z+s+]@m@q+F+Q@R@(.Y . . . . . . . . . . . . . . ",
". . . . . . . . . . . . . . . . . . . . h.g.h@`+8@H+W+J+I+H+Z+Y+W+;@X+y.r+7@]@G+S@T@U@(.Y y.. . . . . . . . . . . . . . . . . ",
". . . . . . . . . . . . . . . . . . . . . h.g.h@O@r+X+I+H+Z+Z+H+K+T+c@V@++W@E+(.Y y.. . . . . . . . . . . . . . . . . . . . . ",
". . . . . . . . . . . . . . . . . . . . . . . (.X@7@y.I+J+r+S+Y@Z@`@X@+ Y y.. . . . . . . . . . . . . . . . . . . . . . . . . ",
". . . . . . . . . . . . . . . . . . . . . . . . (. #K+0@.#+#U++ R.h.. . . . . . . . . . . . . . . . . . . . . . . . . . . . . ",
". . . . . . . . . . . . . . . . . . . . . . . . . + $ + R.h.. . . . . . . . . . . . . . . . . . . . . . . . . . . . . . . . . ",
". . . . . . . . . . . . . . . . . . . . . . . . . . . . . . . . . . . . . . . . . . . . . . . . . . . . . . . . . . . . . . . ",
". . . . . . . . . . . . . . . . . . . . . . . . . . . . . . . . . . . . . . . . . . . . . . . . . . . . . . . . . . . . . . . ",
". . . . . . . . . . . . . . . . . . . . . . . . . . . . . . . . . . . . . . . . . . . . . . . . . . . . . . . . . . . . . . . ",
". . . . . . . . . . . . . . . . . . . . . . . . . . . . . . . . . . . . . . . . . . . . . . . . . . . . . . . . . . . . . . . ",
". . . . . . . . . . . . . . . . . . . . . . . . . . . . . . . . . . . . . . . . . . . . . . . . . . . . . . . . . . . . . . . ",
". . . . . . . . . . . . . . . . . . . . . . . . . . . . . . . . . . . . . . . . . . . . . . . . . . . . . . . . . . . . . . . ",
". . . . . . . . . . . . . . . . . . . . . . . . . . . . . . . . . . . . . . . . . . . . . . . . . . . . . . . . . . . . . . . ",
". . . . . . . . . . . . . . . . . . . . . . . . . . . . . . . . . . . . . . . . . . . . . . . . . . . . . . . . . . . . . . . ",
". . . . . . . . . . . . . . . . . . . . . . . . . . . . . . . . . . . . . . . . . . . . . . . . . . . . . . . . . . . . . . . "};
