/* XPM */
static char * splitOutput_xpm[] = {
"63 63 3 1",
" 	c None",
".	c #FFFFFF",
"+	c #000000",
"...............................................................",
"...............................................................",
"...............................................................",
"...............................................................",
"...............................................................",
"...............................................................",
"...............................................................",
"...................+++++++++++++++++++++++++++.................",
"...................+........................+..................",
"..................+........................+...................",
".................++.......................++...................",
"................++.......................++....................",
"...............++.......................++.....................",
"...............+.......................++......................",
"..............+........................+.......................",
".............+........................+........................",
"............++.......................+.........................",
"...........++.......................++.........................",
"...........++++++++++++++++++++++++++..........................",
"...............................................................",
"...............................................................",
"..........................+....................................",
"..........................+....................................",
"..........................+....................................",
"..........................+....................................",
"..........................+....................................",
"..........................+....................................",
"..........................+....................................",
"..........................+....................................",
"........................+.+.+..................................",
"........................+.+.+..................................",
".........................++++..................................",
".........................+++...................................",
"..........................+....................................",
"...............................................................",
"...............................................................",
"...............................................................",
"...............................................................",
".............+++++++++++...............+++++++++++.............",
"............++........+...............++........+..............",
"...........++........+...............++........+...............",
"..........++........++..............++........++...............",
".........++........++..............++........++................",
".........+++++++++++...............+++++++++++.................",
"...............................................................",
"...............................................................",
"...............................................................",
"...............................................................",
"...............................................................",
"...............................................................",
"..........+++++++++++.................+++++++++++..............",
".........++........+.................++........+...............",
"........++........+.................++........+................",
".......++........++................++........++................",
"......++........++................++........++.................",
"......+++++++++++.................+++++++++++..................",
"...............................................................",
"...............................................................",
"...............................................................",
"...............................................................",
"...............................................................",
"...............................................................",
"..............................................................."};
