/* XPM */
static char * spots_xpm[] = {
"20 20 71 1",
" 	c #FFFFFF",
".	c #FFF6F6",
"+	c #FEC8C8",
"@	c #FC9A9A",
"#	c #FC8F8F",
"$	c #FDA9A9",
"%	c #FEDBDB",
"&	c #EFFEE8",
"*	c #CCFDB8",
"=	c #B2FC95",
"-	c #FDBBBB",
";	c #FB5353",
">	c #F92626",
",	c #F91B1B",
"'	c #FA3434",
")	c #FB7474",
"!	c #B4FC97",
"~	c #77FA44",
"{	c #5EF921",
"]	c #FEE3E3",
"^	c #FB5F5F",
"/	c #F91717",
"(	c #F92828",
"_	c #FC8C8C",
":	c #57F917",
"<	c #FED5D5",
"[	c #FB5454",
"}	c #FFFFFD",
"|	c #FEFEEB",
"1	c #FDFED8",
"2	c #FCFED2",
"3	c #FDFEDC",
"4	c #FEFFF0",
"5	c #CAC6FE",
"6	c #7E75FB",
"7	c #574BFA",
"8	c #675CFB",
"9	c #AAA4FD",
"0	c #F1F0FF",
"a	c #FDFEDB",
"b	c #F7FB77",
"c	c #F2FA30",
"d	c #F1F91D",
"e	c #F4FA47",
"f	c #F9FC9C",
"g	c #594DFA",
"h	c #3021F9",
"i	c #2818F9",
"j	c #2D1DF9",
"k	c #3F30FA",
"l	c #A39CFC",
"m	c #F1F917",
"n	c #F3FA30",
"o	c #FAFDA4",
"p	c #2717F9",
"q	c #5447FA",
"r	c #DEDCFE",
"s	c #F5FB5C",
"t	c #D5D2FE",
"u	c #F1F918",
"v	c #F4FA4B",
"w	c #3E30FA",
"x	c #DBD8FE",
"y	c #F2F921",
"z	c #F7FB75",
"A	c #8077FB",
"B	c #ECEBFE",
"C	c #F4FA4D",
"D	c #FCFEC6",
"E	c #DDDBFE",
"F	c #FDFDFF",
"                    ",
"                    ",
" .+@#$%     &*==*&  ",
".-;>,')%   &!~{{~!& ",
"]^////(_   *~::::~* ",
"<>////,[   ={::::{= ",
"<>////,[   ={::::{= ",
"]^////(_   *~::::~* ",
".-;>,')%   &!~{{~!& ",
" .+@#$%     &*==*&  ",
"           }|1234   ",
"  567890  }abcdef4  ",
" 5ghijkl0 |bmmmmno  ",
" 6hppppqr 1cmmmmds  ",
" 7ippppjt 2dmmmmuv  ",
" 8jppppwx 3emmmmyz  ",
" 9kppppAB 4fnduyCD  ",
" 0lqjwAEF  4osvzD   ",
"  0rtxBF            ",
"                    "};
