/* XPM */
static char * vdmUser_xpm[] = {
"63 63 20 1",
" 	c None",
".	c #FFFFFF",
"+	c #747474",
"@	c #A8A8A8",
"#	c #848484",
"$	c #C9C9C9",
"%	c #EAEAEA",
"&	c #939393",
"*	c #B8B8B8",
"=	c #9E9E9E",
"-	c #9A9A9A",
";	c #000000",
">	c #797979",
",	c #E4E4E4",
"'	c #B4B4B4",
")	c #D7D7D7",
"!	c #878787",
"~	c #F4F4F4",
"{	c #A1A1A1",
"]	c #D4D4D4",
"...............................................................",
"...............................................................",
"...............................................................",
"...............................................................",
"...............................................................",
"...............................................................",
".............+@@@#$.....................%%.....................",
"..........%+&$%%%*$@%................==&@@.....................",
"........#@@$.......%@&............$&&$$........................",
".......&*%............+$.........#*............................",
"......................$$$......#-$...........;.................",
"........................>-$$$$&$%............;.................",
"..........................$$$$.............;;;;;...............",
".............................................;.................",
".............................................;.................",
"...............................................................",
"..................$$$..........................................",
"................*@$$$&..................%@.....................",
"...............*$.....&@$%..............*#.....................",
".............,'#.......)#@$............=$......................",
".............,'...........#>..........$$.....;.................",
"...........................*.........%$......;.................",
"............................$$......=#.....;;;;;...............",
"............................@-....%@$........;.................",
"............................%-$%%@!@.........;.................",
".............................$=@@%.............................",
"........................%$$................%...................",
"........................@$$&.%.............@...................",
".....................%@&....@-=$.........$=....................",
"....................~{%.......=$$........&$....................",
"....................]]..........$@*%...%&......................",
".................................%#@@==@.......................",
"....................................%==........................",
"...............................................................",
"...............................................................",
"...............................................................",
"...............................................................",
"...............................................................",
"..............................;................................",
"..............................;................................",
"..............................;................................",
"..............................;................................",
"..............................;................................",
"..............................;................................",
"..............................;................................",
"..............................;................................",
"..............................;................................",
"............................;.;.;..............................",
"............................;;;;;..............................",
".............................;;;...............................",
"..............................;................................",
"...............................................................",
"...............................................................",
"...............................................................",
".........................%$$$$$$...............................",
"......................*$@@$$$$$$&$@$$%.........................",
".....................&#$%........$%==@$%........%&.............",
"..................]]&.................=#&@@$$$$+@..............",
"..................~~.....................%%#*$$$...............",
"...............................................................",
"...............................................................",
"...............................................................",
"..............................................................."};
