/* XPM */
static char * wfscent_xpm[] = {
"63 63 23 1",
" 	c None",
".	c #000000",
"+	c #1A1A1A",
"@	c #2F2F2F",
"#	c #202020",
"$	c #030303",
"%	c #252525",
"&	c #656565",
"*	c #8A8A8A",
"=	c #EDEDED",
"-	c #BCBCBC",
";	c #BBBBBB",
">	c #5E5E5E",
",	c #E4E4E4",
"'	c #FDFDFD",
")	c #0F0F0F",
"!	c #555555",
"~	c #757575",
"{	c #3C3C3C",
"]	c #272727",
"^	c #D4D4D4",
"/	c #F5F5F5",
"(	c #A3A3A3",
"...............................................................",
"...............................................................",
"...............................................................",
"...............................................................",
"...............................................................",
"....................+@#$..............................%&&%.....",
".....$#@+...........*=-#........+*;>.......+*;>.......&,,&.....",
".....#-=*...........;'=@........@=';.......@=';.......&,,&.....",
".....@=';...........>;*+........#-=*.......#-=*.......%&&%.....",
".....+*;>.......................$#@+.......$#@+................",
"...............................................................",
"...............................................................",
"...............................................................",
"...............................................................",
"...............................................................",
"...............................................................",
"..........................%&&%..........)!~{...................",
"..........................&,,&..........]^/(...................",
"......%&&%................&,,&..........]^/(...................",
"......&,,&.......)]]).....%&&%..........)!~{.......)]])........",
"......&,,&.......!^^!..............................!^^!........",
"......%&&%.......~//~..............................~//~........",
".................{(({..............................{(({........",
"...............................................................",
"...............................................................",
"...............................................................",
"...............................................................",
"...............................................................",
"...............................................................",
"......................................%&&%.....................",
"......................................&,,&.....................",
".....+*;>......)!~{.......+*;>........&,,&.......+*;>..........",
".....@=';......]^/(.......@=';........%&&%.......@=';..........",
".....#-=*......]^/(.......#-=*...................#-=*..........",
".....$#@+......)!~{.......$#@+...................$#@+..........",
"...............................................................",
"...............................................................",
"...............................................................",
"...............................................................",
"...............................................................",
"...............................................................",
"...........................................)!~{................",
"........)]]).......>;*+........)!~{........]^/(................",
"........!^^!.......;'=@........]^/(........]^/(.........)!~{...",
"........~//~.......*=-#........]^/(........)!~{.........]^/(...",
"........{(({.......+@#$........)!~{.....................]^/(...",
"........................................................)!~{...",
"...............................................................",
"...............................................................",
"...............................................................",
"...............................................................",
"...............................................................",
"...............................................................",
"...............................................................",
"......)!~{...................)!~{..............................",
"......]^/(.........{(({......]^/(.........{(({.........+*;>....",
"......]^/(.........~//~......]^/(.........~//~.........@=';....",
"......)!~{.........!^^!......)!~{.........!^^!.........#-=*....",
"...................)]])...................)]]).........$#@+....",
"...............................................................",
"...............................................................",
"...............................................................",
"..............................................................."};
